<svg width="100" height="100" viewBox="0 0 100 100" fill="none" xmlns="http://www.w3.org/2000/svg">
<path d="M61.4128 19.2864C61.4128 19.2864 69.7627 11.1399 76.4449 9.59091C81.1977 8.48914 86.0882 10.6505 87.1663 15.5404C88.4803 21.5004 82.303 23.9138 75.008 23.9138C69.4929 23.9138 61.4128 19.2864 61.4128 19.2864C61.4128 19.2864 48.7018 22.3714 42.2911 19.2864C37.681 17.068 33.6707 12.3767 35.9908 7.8281C38.268 3.36373 44.6071 2.9425 48.7018 5.84492C53.6757 9.37057 61.4128 19.2864 61.4128 19.2864Z" fill="#6AD26B" fill-opacity="0.85"/>
<path d="M51.0229 29.3125L61.4128 19.2864M61.4128 19.2864C61.4128 19.2864 69.7627 11.1399 76.4449 9.59091C81.1977 8.48915 86.0882 10.6505 87.1663 15.5404C88.4803 21.5004 82.303 23.9138 75.008 23.9138C69.4929 23.9138 61.4128 19.2864 61.4128 19.2864ZM61.4128 19.2864C61.4128 19.2864 53.6757 9.37057 48.7018 5.84492C44.6071 2.9425 38.268 3.36373 35.9908 7.8281C33.6707 12.3767 37.681 17.068 42.2911 19.2864C48.7018 22.3714 61.4128 19.2864 61.4128 19.2864Z" stroke="#063248" stroke-width="4"/>
<path d="M48.3593 81.9916C63.217 98.651 83.3819 93.3953 86.2105 92.5516C86.3078 92.5225 86.2953 92.3831 86.1979 92.354C84.8159 91.9408 79.7113 89.999 78.2586 83.5414C76.5732 76.0493 84.7193 71.1016 87.3879 64.1749C90.0564 57.2482 90.1136 43.7277 75.1687 35.3373C72.4853 33.8307 67.0288 31.3532 57.7528 29.8242C50.162 28.5729 42.2107 29.8956 39.2185 30.8223C36.2262 31.749 27.7775 34.3617 19.8568 41.9713C15.6103 46.0511 10.0001 53.5728 10 64.4576C9.99993 75.3424 19.5506 80.7141 19.5506 80.7141C19.5506 80.7141 27.5563 87.0753 43.7081 82.8345C59.8599 78.5937 70.2533 67.5675 73.2027 57.955C76.1522 48.3424 67.0288 44.2719 58.8768 44.9498C53.8372 45.3688 42.5845 50.1119 42.5845 63.1853C42.5845 70.7995 48.3593 81.9916 48.3593 81.9916Z" stroke="#063248" stroke-width="4"/>
</svg>
