<svg width="150" height="150" viewBox="0 0 150 150" fill="none" xmlns="http://www.w3.org/2000/svg">
<path d="M80.2343 69.2329C79.8186 69.2329 79.8186 70.0049 80.2343 70.0049C81.224 70.0049 95.011 69.7772 96.169 69.5496C96.2744 69.5338 96.3707 69.4806 96.4403 69.3998C96.5099 69.3189 96.5481 69.2158 96.5481 69.1092C96.5481 69.0025 96.5099 68.8994 96.4403 68.8186C96.3707 68.7378 96.2744 68.6846 96.169 68.6688C92.5366 68.1937 84.2328 69.1537 80.2343 69.2329ZM85.757 89.4432C85.3017 89.4432 85.3809 90.2052 85.8164 90.225C89.0429 90.3339 94.0707 90.1657 97.3665 90.0172C97.9703 90.0172 98.0395 89.0275 97.3665 89.0275C93.6748 89.0473 89.4586 89.0968 85.757 89.4432ZM86.1826 55.3074C86.0867 55.3116 85.9955 55.3504 85.9261 55.4167C85.8567 55.4831 85.8138 55.5724 85.8053 55.668C85.7968 55.7636 85.8234 55.8591 85.8801 55.9366C85.9367 56.0141 86.0196 56.0684 86.1133 56.0893C87.8849 56.307 93.6352 56.5347 95.3673 55.8023C95.4559 55.7583 95.5278 55.6867 95.5721 55.5983C95.6164 55.5098 95.6307 55.4093 95.6128 55.312C95.5949 55.2147 95.5458 55.1259 95.473 55.059C95.4001 54.9921 95.3074 54.9507 95.2089 54.9412C92.9127 54.8027 89.231 55.5351 86.1826 55.3074ZM74.8799 74.429C83.2332 74.3102 92.695 73.7263 101.127 72.9543C101.652 72.9543 101.603 71.9645 101.058 71.9645C92.7643 72.1724 83.0748 72.7167 74.8304 73.5679C74.7162 73.5745 74.6093 73.6261 74.5332 73.7115C74.4571 73.7969 74.418 73.909 74.4246 74.0232C74.4312 74.1374 74.4828 74.2443 74.5682 74.3204C74.6536 74.3965 74.7657 74.4355 74.8799 74.429ZM86.8556 30.3465C89.1815 30.1683 91.5073 30.0297 93.7837 29.7526C94.4369 29.6833 94.2687 28.7629 93.6254 28.7629C91.3094 28.941 88.9934 29.238 86.6973 29.5052C86.1628 29.5646 86.3112 30.386 86.8556 30.3465ZM73.2765 50.9922C72.7817 50.9922 72.7619 51.8335 73.2765 51.8731C78.8718 52.1337 84.4785 51.7417 89.9831 50.7052C90.6067 50.5963 90.5077 49.6066 89.8743 49.7154C84.3927 50.6503 78.8366 51.0777 73.2765 50.9922ZM91.6954 35.0873C92.5564 35.2951 92.6851 33.8897 91.8933 34.0282C88.0305 34.6545 84.1152 34.8965 80.2046 34.7508C79.6801 34.7508 79.5613 35.5128 80.0957 35.5722C83.9657 35.9607 87.8713 35.7974 91.6954 35.0873ZM70.2579 73.9638C69.4859 73.6669 65.9228 74.1617 64.9232 74.2706C64.4383 74.2706 64.4185 75.0525 64.9232 75.0426L68.9712 74.9139C70.8418 74.8447 70.8319 74.1914 70.2579 73.9638ZM74.3454 116.789C73.5141 116.591 67.6054 117.037 66.6354 117.096C66.1208 117.096 66.2198 117.888 66.7344 117.878C67.7835 117.878 73.5339 117.878 74.4444 117.591C74.8502 117.452 74.7116 116.869 74.3454 116.789ZM66.6255 112.603C69.4067 112.731 76.2952 112.85 79.0763 112.187C79.1413 112.187 79.2055 112.173 79.2647 112.146C79.3238 112.119 79.3768 112.08 79.42 112.031C79.4632 111.983 79.4958 111.926 79.5157 111.864C79.5355 111.802 79.5422 111.737 79.5353 111.672C79.5283 111.608 79.5079 111.545 79.4753 111.489C79.4428 111.433 79.3988 111.384 79.3463 111.346C79.2937 111.307 79.2337 111.281 79.1702 111.267C79.1067 111.253 79.041 111.253 78.9774 111.267C74.9096 111.267 71.1387 111.95 66.7443 111.771C66.2198 111.752 66.0812 112.573 66.6255 112.603ZM76.2259 95.0054C76.8198 94.8966 76.7703 94.0157 76.1467 94.0157C71.7523 94.4611 70.8319 94.57 66.3286 94.7481C65.8932 94.7481 65.8437 95.5003 66.3286 95.53C69.6369 95.7496 72.9595 95.5735 76.2259 95.0054ZM82.3226 88.78C76.9385 88.978 71.3466 89.8885 65.7249 90.0865C65.6244 90.1019 65.5328 90.1529 65.4666 90.23C65.4004 90.3072 65.364 90.4055 65.364 90.5071C65.364 90.6088 65.4004 90.7071 65.4666 90.7842C65.5328 90.8614 65.6244 90.9123 65.7249 90.9278C70.3865 90.9278 77.8887 90.71 82.4315 89.7005C82.5263 89.6585 82.6051 89.5873 82.6565 89.4972C82.7078 89.4072 82.7289 89.303 82.7168 89.2001C82.7046 89.0971 82.6598 89.0008 82.5888 88.9252C82.5179 88.8496 82.4246 88.7987 82.3226 88.78ZM100.662 114.365C100.583 114.365 95.1495 114.81 94.2192 114.78C94.1311 114.796 94.0504 114.84 93.9892 114.905C93.928 114.971 93.8895 115.054 93.8795 115.143C93.8695 115.232 93.8885 115.322 93.9336 115.399C93.9788 115.476 94.0477 115.537 94.1301 115.572C95.2386 115.78 99.9101 115.859 100.87 115.047C100.919 114.994 100.952 114.929 100.968 114.859C100.984 114.789 100.981 114.716 100.96 114.647C100.939 114.578 100.901 114.516 100.848 114.466C100.796 114.417 100.732 114.382 100.662 114.365ZM102.414 92.7785C95.5553 93.2239 87.8948 93.4812 81.0657 94.0652C80.5312 94.0652 80.6302 94.8669 81.1449 94.8966C84.8366 95.0054 97.9703 94.3324 102.503 93.7584C102.568 93.7534 102.631 93.7356 102.689 93.7058C102.746 93.6761 102.797 93.6351 102.839 93.5853C102.88 93.5354 102.912 93.4778 102.93 93.4157C102.949 93.3537 102.955 93.2884 102.949 93.2239C102.936 93.0943 102.873 92.9748 102.773 92.8915C102.673 92.8081 102.544 92.7675 102.414 92.7785ZM76.6515 70.2721C76.7827 70.2721 76.9086 70.22 77.0014 70.1272C77.0942 70.0344 77.1464 69.9085 77.1464 69.7772C77.1464 69.646 77.0942 69.5201 77.0014 69.4273C76.9086 69.3345 76.7827 69.2824 76.6515 69.2824C72.3858 69.3913 68.0804 69.4209 63.785 69.7476C63.6927 69.7681 63.6101 69.8195 63.5509 69.8932C63.4918 69.967 63.4595 70.0588 63.4595 70.1533C63.4595 70.2479 63.4918 70.3397 63.5509 70.4135C63.6101 70.4872 63.6927 70.5386 63.785 70.5591C68.1002 70.6383 72.3858 70.4107 76.6515 70.2721ZM93.5264 110.227C92.022 110.227 86.5983 110.613 85.3116 110.841C84.8959 110.91 84.8366 111.593 85.3116 111.613C86.7071 111.682 92.1012 111.336 93.6649 111.197C94.2687 111.217 94.14 110.227 93.5264 110.227ZM90.6364 115.78L78.1955 116.572C77.6313 116.572 77.7699 117.433 78.3241 117.403C80.7391 117.294 88.5085 116.987 90.6859 116.69C91.1708 116.631 91.1807 115.78 90.6364 115.78ZM81.7288 29.7526C78.0767 29.3369 66.6157 30.0297 62.726 30.4256C62.1916 30.4751 62.152 31.3065 62.726 31.257C69.1197 30.8413 75.3451 30.7028 81.7387 30.7226C81.8504 30.6987 81.9503 30.637 82.0217 30.5479C82.0931 30.4588 82.1314 30.3477 82.1303 30.2335C82.1291 30.1194 82.0885 30.0091 82.0153 29.9215C81.9421 29.8338 81.8409 29.7742 81.7288 29.7526ZM82.7878 56.4654C83.4113 56.3763 83.1837 55.4757 82.5602 55.4757C76.1898 56.2014 69.7806 56.532 63.3693 56.4654C63.2763 56.4802 63.1917 56.5278 63.1305 56.5994C63.0694 56.6711 63.0359 56.7622 63.0359 56.8563C63.0359 56.9505 63.0694 57.0416 63.1305 57.1133C63.1917 57.1849 63.2763 57.2324 63.3693 57.2473C69.8526 57.5595 76.3507 57.2979 82.7878 56.4654ZM76.0676 35.7405C76.1327 35.7343 76.1959 35.7153 76.2536 35.6845C76.3113 35.6537 76.3624 35.6118 76.4038 35.5612C76.4452 35.5106 76.4762 35.4522 76.4949 35.3896C76.5136 35.3269 76.5198 35.2612 76.5129 35.1961C76.5068 35.131 76.4877 35.0678 76.457 35.0101C76.4262 34.9524 76.3843 34.9013 76.3337 34.8599C76.283 34.8185 76.2247 34.7875 76.1621 34.7688C76.0994 34.75 76.0336 34.7439 75.9686 34.7508C71.6039 35.2951 67.4668 35.3149 63.1615 35.691C62.7062 35.7405 62.6567 36.4828 63.1615 36.5026C67.4765 36.5723 71.7907 36.3176 76.0676 35.7405ZM63.8048 51.4079C63.31 51.4079 63.3001 52.1898 63.8642 52.2096C65.6405 52.3769 67.4261 52.4231 69.2087 52.3481C69.289 52.3123 69.3572 52.2539 69.405 52.1802C69.4529 52.1064 69.4783 52.0204 69.4783 51.9324C69.4783 51.8445 69.4529 51.7585 69.405 51.6847C69.3572 51.6109 69.289 51.5526 69.2087 51.5168C69.0306 51.4178 64.7154 51.4079 63.8048 51.4079ZM51.453 57.1087C52.027 57.1087 54.155 53.5853 55.3525 52.3778C55.788 51.9423 55.0754 51.2099 54.63 51.6256C53.3674 52.7639 52.2742 54.0771 51.3837 55.5252L48.8797 53.2191C48.3651 52.744 47.7019 53.5556 48.177 54.0406C48.6521 54.5255 50.7206 57.1087 51.453 57.1087ZM44.6833 40.9465C48.7412 41.184 52.9574 41.1048 57.4112 41.1345C57.7279 41.1345 57.9159 40.2536 57.4112 29.7427C57.4112 28.9806 57.3419 28.4165 57.332 28.2086C57.3345 28.178 57.3306 28.1472 57.3203 28.1182C57.3101 28.0892 57.2938 28.0626 57.2726 28.0404C56.9856 27.7336 55.115 27.7534 50.9087 27.8622C43.8321 28.0305 43.0502 27.981 43.0502 28.3868C43.0205 28.466 43.4659 40.8277 44.6833 40.9465ZM44.9604 40.2141C44.4655 37.5715 44.1092 31.9894 43.8024 28.8619C46.6825 29.0301 53.2444 28.7035 56.5501 28.6243C56.5501 28.6243 56.7283 37.423 56.8074 40.2635C52.9277 40.1745 48.8797 40.026 44.9208 40.1646L44.9604 40.2141Z" fill="black"/>
<path d="M58.7762 59.692C59.6076 59.3654 58.6377 50.1411 58.4991 47.7163C58.4923 47.6664 58.4677 47.6207 58.4298 47.5876C57.836 47.073 45.2763 47.7559 44.6429 47.8054C44.0095 47.8549 44.6429 51.2991 44.7518 53.6448C44.9794 59.4842 45.2466 59.9889 45.5435 60.0285C47.7011 60.3353 56.7968 60.464 58.7762 59.692ZM45.2466 48.617C49.5321 48.3398 53.8771 48.32 57.737 48.3002C57.836 50.6162 57.9943 57.1385 58.1923 58.9002C54.1585 59.3174 50.0993 59.4332 46.0483 59.2466C46.2166 57.7719 45.3951 50.2896 45.2466 48.617ZM53.303 73.6076L55.5992 71.5292C55.6661 71.416 55.6956 71.2846 55.6834 71.1537C55.6711 71.0228 55.6179 70.8992 55.5311 70.8004C55.4444 70.7016 55.3287 70.6327 55.2005 70.6036C55.0723 70.5745 54.9382 70.5867 54.8173 70.6384C53.8771 71.2175 53.024 71.9273 52.2836 72.7465L50.225 70.8463C50.1134 70.7426 49.9652 70.6875 49.813 70.693C49.6608 70.6986 49.5171 70.7644 49.4134 70.876C49.3097 70.9875 49.2546 71.1357 49.2601 71.2879C49.2657 71.4401 49.3315 71.5839 49.4431 71.6875L51.4225 73.667C49.641 75.5475 48.8591 76.7253 49.0373 77.2597C49.2154 77.7942 49.8588 77.5566 50.027 77.3191C50.7198 76.4679 51.5017 75.498 52.343 74.5973C53.177 75.5079 54.1023 76.3304 55.1043 77.0519C55.2077 77.0787 55.3164 77.0771 55.419 77.0473C55.5216 77.0175 55.6142 76.9606 55.6871 76.8826C55.7601 76.8046 55.8106 76.7084 55.8335 76.604C55.8563 76.4997 55.8506 76.3911 55.8169 76.2898C55.0719 75.313 54.2296 74.4143 53.303 73.6076ZM53.8276 31.1779C52.2466 32.5606 50.9549 34.2424 50.027 36.1266C49.2815 35.2341 48.4231 34.4423 47.4735 33.771C46.8896 33.3652 46.1374 34.1372 46.7114 34.5727C47.8404 35.5705 48.8956 36.6489 49.8687 37.7992C50.126 38.0665 50.3734 37.9279 50.5912 37.6409C51.669 35.541 52.9984 33.5801 54.5501 31.8015C55.0251 31.2769 54.3422 30.693 53.8276 31.1779ZM53.5109 95.7973C54.0255 95.441 55.9852 91.6603 57.1234 90.3736C57.5687 89.8788 56.7968 89.1958 56.292 89.7204C54.9371 91.1163 53.7754 92.6874 52.8378 94.3919L50.5318 92.4125C50.027 91.9869 49.354 92.749 49.8786 93.2537C50.4031 93.7585 52.6597 96.5297 53.5109 95.7973ZM61.0625 108.486C60.6864 107.743 47.1469 108.486 47.0182 108.486C46.9887 108.489 46.9606 108.5 46.9364 108.518C46.9122 108.535 46.8927 108.558 46.8797 108.585C46.4244 109.317 46.8797 121.223 47.2063 122.332C47.5923 123.678 60.7161 122.56 61.3693 122.619C61.389 122.623 61.4094 122.623 61.4291 122.619C61.4488 122.615 61.4673 122.606 61.4833 122.594C61.4993 122.581 61.5125 122.566 61.5219 122.548C61.5312 122.53 61.5366 122.51 61.5375 122.49C61.7454 120.976 61.112 108.585 61.0625 108.486ZM47.6517 109.208C51.6106 109.376 56.292 109.129 60.3103 109.119C60.3697 110.772 60.726 120.471 60.7755 121.778C56.3811 121.976 52.6894 121.906 48.008 121.778C48.0575 120.125 47.711 110.713 47.6517 109.238V109.208Z" fill="black"/>
<path d="M52.4326 115.622C53.1353 115.622 56.7281 115.869 57.0151 115.711C57.0907 115.668 57.1554 115.608 57.2041 115.536C57.2527 115.464 57.284 115.381 57.2955 115.295C57.307 115.209 57.2984 115.121 57.2704 115.039C57.2423 114.956 57.1956 114.881 57.1338 114.82C56.6093 114.266 53.2937 114.385 52.7395 114.493C51.9873 114.632 51.8487 114.919 51.8685 115.137C51.8949 115.269 51.9647 115.389 52.067 115.477C52.1692 115.564 52.2979 115.616 52.4326 115.622ZM53.7688 86.5732C50.5225 86.6326 47.1079 86.7514 46.5437 86.791C46.326 86.791 46.0984 86.979 46.0687 89.0377C46.0687 91.5021 46.4943 99.3111 47.484 99.3803C49.4634 99.5288 59.6972 99.5684 61.0136 99.4694C61.2214 99.4694 61.3897 99.4694 61.0136 94.3228C60.8057 91.6703 60.3406 86.8504 60.3406 86.8504C60.301 86.6524 60.2812 86.4743 53.7688 86.5732ZM59.5983 87.4442C59.8358 91.1359 59.9645 94.9167 60.3604 98.6281H47.771C47.385 95.0552 47.1277 91.3734 46.8506 87.5927L59.5983 87.4442ZM48.8795 81.0011C52.8978 81.0011 59.6181 80.4567 59.6774 80.427C60.3109 80.1004 59.6774 71.1632 59.4696 67.3428C59.4696 66.6599 55.9759 66.65 53.076 66.7589C51.8091 66.7589 45.5144 67.0954 45.5342 67.996C45.8707 81.2485 45.7916 80.6052 46.039 80.7437C46.9652 80.9854 47.925 81.0723 48.8795 81.0011ZM46.7912 80.0113C46.5635 76.1118 46.4844 71.9747 46.326 68.1346C50.4358 67.7696 54.5626 67.6308 58.6877 67.7189C58.6877 69.0748 58.955 78.0913 59.1232 79.5957C57.6584 79.6946 48.3253 79.7639 46.8209 80.0212L46.7912 80.0113Z" fill="black"/>
<path d="M121.13 95.6488C118.537 25.1108 119.625 25.7047 119.15 25.289C118.477 24.6556 113.281 25.0713 112.005 25.1405L111.47 14.3228C111.496 14.2576 111.505 14.1871 111.497 14.1175C111.49 14.0479 111.466 13.9811 111.427 13.9228C111.388 13.8645 111.336 13.8165 111.274 13.7827C111.213 13.749 111.144 13.7305 111.074 13.729C90.2899 13.4716 68.9019 14.8474 47.4545 16.3023C41.6745 16.7081 35.6668 17.0644 29.7878 17.6879C29.7329 17.6791 29.6766 17.6825 29.6231 17.6981C29.5697 17.7136 29.5203 17.7408 29.4787 17.7778C29.437 17.8147 29.4041 17.8604 29.3822 17.9116C29.3604 17.9628 29.3502 18.0182 29.3523 18.0739C30.441 44.4996 33.6082 87.2163 39.0814 134.515C39.1408 135.06 43.6539 134.585 47.7118 134.318C47.7649 135.482 47.9746 136.634 48.3353 137.742C48.9292 138.494 122.347 133.941 122.258 130.814C121.941 119.066 121.516 107.169 121.13 95.6488ZM115.568 126.509C89.5378 130.467 66.1307 131.576 39.9919 133.833C34.8156 88.988 32.6877 58.2272 30.0946 18.3807C38.1312 17.9056 67.8528 15.174 110.787 14.6098C111.856 43.3812 115.835 123.341 115.538 126.509H115.568Z" fill="black"/>
</svg>
