<svg width="150" height="150" viewBox="0 0 150 150" fill="none" xmlns="http://www.w3.org/2000/svg">
<path d="M61.2524 13.1325C53.6027 13.5575 46.9344 14.2825 42.1282 15.2075C41.4488 15.3325 40.3164 15.5325 39.6118 15.6575C36.5671 16.2325 30.4524 17.8075 29.622 18.2325C29.3703 18.3575 28.8419 18.4575 28.4141 18.4575C28.0115 18.4575 27.6592 18.5575 27.6592 18.7075C27.6592 18.8325 27.3321 18.9575 26.9043 18.9575C26.5017 18.9575 26.1494 19.0575 26.1494 19.2075C26.1494 19.3325 25.8726 19.4575 25.5455 19.4575C25.1932 19.4575 24.8409 19.5575 24.7654 19.7075C24.69 19.8325 24.3377 19.9575 23.9854 19.9575C23.6583 19.9575 23.3815 20.0575 23.3815 20.2075C23.3815 20.3325 23.155 20.4575 22.9034 20.4575C22.6266 20.4575 22.3246 20.5575 22.2491 20.7075C22.1736 20.8325 21.8717 20.9575 21.5949 20.9575C21.3432 20.9575 21.1168 21.0325 21.1168 21.1325C21.1168 21.2575 20.689 21.5325 20.1354 21.7825C19.6069 22.0325 18.852 22.5325 18.4494 22.8825C18.0468 23.2075 17.4177 23.6825 17.0151 23.9075C16.6377 24.1325 16.3357 24.4325 16.3357 24.5825C16.3357 24.7325 16.1092 25.0075 15.8324 25.2075C15.5556 25.4075 15.3292 25.7075 15.3292 25.8825C15.3292 26.0575 15.2285 26.2075 15.1027 26.2075C14.7252 26.2075 12.8883 30.1825 12.3096 32.2075C11.605 34.7325 10.9256 38.8325 10.5481 42.8325C9.21446 56.5575 10.3468 70.8825 13.5929 81.3575C13.7187 81.7825 13.8194 82.3575 13.8194 82.6575C13.8194 82.9575 13.9452 83.2075 14.071 83.2075C14.222 83.2075 14.3226 83.6075 14.3226 84.0825C14.3226 84.5575 14.4485 84.9575 14.5743 84.9575C14.7252 84.9575 14.8259 85.2825 14.8259 85.7075C14.8259 86.1075 14.9517 86.4575 15.0775 86.4575C15.2285 86.4575 15.3292 86.7325 15.3292 87.0825C15.3292 87.4325 15.455 87.7075 15.5808 87.7075C15.7318 87.7075 15.8324 88.0325 15.8324 88.4575C15.8324 88.8575 15.9583 89.2075 16.0841 89.2075C16.2351 89.2075 16.3357 89.4325 16.3357 89.7075C16.3357 89.9825 16.4615 90.2075 16.5873 90.2075C16.7383 90.2075 16.839 90.3575 16.839 90.5575C16.839 90.8575 17.3422 91.7825 18.9275 94.3075C19.7328 95.6075 22.2743 98.2825 23.8847 99.5075C24.3628 99.8825 25.621 100.608 26.6527 101.133C27.6844 101.658 28.5651 102.158 28.6154 102.258C28.6658 102.383 29.0432 102.458 29.4458 102.458C29.8484 102.458 30.1756 102.558 30.1756 102.708C30.1756 102.833 30.5027 102.958 30.9053 102.958C31.3331 102.958 31.7357 103.058 31.8112 103.208C31.8867 103.333 32.4151 103.458 32.9435 103.458C33.472 103.458 34.0004 103.558 34.0759 103.708C34.1514 103.833 34.9063 103.958 35.7115 103.958C36.5167 103.958 37.2717 104.058 37.3471 104.208C37.4478 104.358 39.1337 104.458 41.5998 104.458C43.8393 104.458 45.7517 104.508 45.8272 104.583C45.9782 104.733 45.8775 105.183 44.9213 109.333C44.2922 112.133 43.6883 114.833 43.2354 117.083C43.0844 117.758 42.8579 118.683 42.7321 119.108C42.6063 119.533 42.5056 120.208 42.5056 120.608C42.5056 121.033 42.405 121.458 42.3043 121.583C42.0527 121.858 41.5998 123.983 41.3481 125.833C41.2726 126.508 41.0462 127.408 40.87 127.833C40.6939 128.233 40.4674 128.858 40.4171 129.208C40.1151 130.533 39.8132 131.633 39.4357 132.458C38.7815 133.933 37.9762 135.908 37.9762 136.058C37.9762 136.133 38.1524 136.208 38.3788 136.208C38.7563 136.208 39.486 135.633 39.486 135.333C39.486 135.258 39.7628 134.808 40.09 134.383C40.4422 133.933 40.719 133.508 40.7442 133.408C40.9455 132.558 41.0965 132.208 41.2726 132.208C41.3984 132.208 41.4991 131.983 41.4991 131.708C41.4991 131.433 41.6249 131.208 41.7507 131.208C41.9017 131.208 42.0024 130.983 42.0024 130.708C42.0024 130.433 42.1282 130.208 42.254 130.208C42.405 130.208 42.5056 130.083 42.5056 129.908C42.5056 129.758 42.8076 129.233 43.1851 128.733C43.5877 128.233 43.8645 127.733 43.8141 127.608C43.789 127.508 43.9903 126.983 44.2922 126.483C44.8207 125.633 47.8151 119.983 48.3939 118.783C48.5449 118.458 48.7462 118.208 48.872 118.208C48.9726 118.208 49.0481 117.983 49.0481 117.708C49.0481 117.433 49.1739 117.208 49.2998 117.208C49.4507 117.208 49.5514 116.983 49.5514 116.708C49.5514 116.433 49.6269 116.208 49.7527 116.208C49.8534 116.208 50.2056 115.583 50.5579 114.833C50.9102 114.083 51.2625 113.458 51.3883 113.458C51.489 113.458 51.5645 113.233 51.5645 112.983C51.5645 112.708 51.6651 112.458 51.7909 112.408C51.9671 112.333 52.42 111.533 54.8609 106.958C55.188 106.333 55.5403 105.783 55.6661 105.758C55.7667 105.708 55.8422 105.508 55.8422 105.308C55.8422 105.008 57.9811 104.958 70.1602 104.958C79.4455 104.958 84.5537 104.858 84.6543 104.708C84.755 104.558 86.6171 104.458 89.4102 104.458C91.9266 104.458 94.0906 104.358 94.2416 104.233C94.3674 104.108 95.7766 103.933 97.3618 103.858C100.432 103.708 103.804 103.383 106.924 102.958C107.956 102.808 109.44 102.633 110.195 102.558C110.95 102.483 111.806 102.333 112.082 102.233C112.359 102.108 113.391 101.883 114.347 101.708C115.329 101.533 116.964 101.158 117.996 100.883C119.028 100.633 120.261 100.358 120.713 100.283C121.166 100.208 121.594 100.058 121.67 99.9325C121.745 99.8075 122.072 99.7075 122.399 99.7075C122.727 99.7075 123.079 99.5825 123.154 99.4575C123.23 99.3075 123.481 99.2075 123.683 99.2075C124.01 99.2075 124.991 98.8075 127.055 97.8825C130.552 96.2575 133.975 93.6825 135.157 91.7075C135.459 91.2325 135.786 90.7825 135.862 90.7075C135.962 90.6325 136.189 90.0575 136.39 89.4075C136.566 88.7325 136.818 88.2075 136.919 88.2075C137.019 88.2075 137.12 87.8325 137.12 87.3575C137.12 86.8825 137.246 86.4075 137.372 86.3325C137.523 86.2575 137.623 85.6825 137.623 85.0825C137.623 84.4825 137.749 83.9075 137.875 83.8325C138.026 83.7575 138.127 82.8825 138.127 81.9075C138.127 80.9325 138.227 79.7325 138.353 79.2325C138.479 78.7325 138.705 75.5075 138.856 72.0825C139.083 67.0325 139.058 64.7075 138.756 59.9575C138.353 53.7575 138.051 50.4575 137.623 47.5825C137.472 46.6075 137.296 45.3325 137.221 44.7075C137.145 44.0825 136.969 43.4825 136.843 43.3325C136.717 43.2075 136.617 42.7825 136.617 42.3575C136.617 41.9575 136.516 41.2825 136.39 40.8575C136.264 40.4325 136.013 39.5825 135.837 38.9575C135.686 38.3325 135.208 36.9325 134.805 35.8325C134.377 34.7325 134 33.5825 133.924 33.2575C133.849 32.9575 133.698 32.7075 133.572 32.7075C133.446 32.7075 133.346 32.5575 133.346 32.3825C133.346 31.9325 132.742 30.7075 132.54 30.7075C132.414 30.7075 132.339 30.5075 132.339 30.2575C132.339 30.0075 132.112 29.5575 131.836 29.2575C131.559 28.9575 131.332 28.6075 131.332 28.4825C131.332 28.3325 131.181 28.0075 130.98 27.7825C130.779 27.5325 129.948 26.4825 129.118 25.4575C127.231 23.0825 123.834 19.9575 123.154 19.9575C122.953 19.9575 122.777 19.8325 122.777 19.7075C122.777 19.5575 122.626 19.4575 122.425 19.4575C122.223 19.4575 122.022 19.3575 121.972 19.2575C121.871 18.9825 119.455 17.8575 117.618 17.2075C115.127 16.3575 111.227 15.6075 107.05 15.2075C94.3171 13.9825 91.1213 13.7075 84.2769 13.3325C78.5396 13.0075 65.203 12.8825 61.2524 13.1325ZM83.522 14.2325C85.9377 14.3575 89.4102 14.5825 91.1968 14.7075C93.0086 14.8325 95.3739 15.0075 96.4811 15.0825C97.5883 15.1575 99.2994 15.3325 100.256 15.4575C101.237 15.5825 103.326 15.8075 104.911 15.9575C111.151 16.5325 115.958 17.4075 117.543 18.2325C117.795 18.3575 118.222 18.4575 118.499 18.4575C118.776 18.4575 119.002 18.5575 119.002 18.7075C119.002 18.8325 119.229 18.9575 119.506 18.9575C119.782 18.9575 120.009 19.0575 120.009 19.2075C120.009 19.3325 120.235 19.4575 120.512 19.4575C120.789 19.4575 121.015 19.5575 121.015 19.7075C121.015 19.8325 121.192 19.9575 121.393 19.9575C121.594 19.9575 121.77 20.0575 121.77 20.2075C121.77 20.3325 121.946 20.4575 122.148 20.4575C122.374 20.4575 122.802 20.7075 123.129 21.0075C123.456 21.3325 123.96 21.7575 124.262 21.9575C126.602 23.5575 130.175 27.9825 131.836 31.3325C132.188 32.0075 132.515 32.6325 132.616 32.7075C132.691 32.7825 132.817 33.0575 132.893 33.3325C132.968 33.6075 133.346 34.6075 133.698 35.5825C135.107 39.3075 136.189 43.7575 136.516 47.0825C136.592 47.7575 136.743 48.5575 136.868 48.8325C136.994 49.1075 137.17 50.1825 137.221 51.2075C137.95 61.5325 138.026 67.8575 137.598 75.5825C137.196 82.6825 137.095 83.8075 136.843 84.0575C136.717 84.2075 136.617 84.7825 136.617 85.3575C136.617 85.9575 136.516 86.5075 136.365 86.5825C136.239 86.6575 136.113 86.9825 136.113 87.3075C136.113 88.1575 134.553 91.1825 133.471 92.4075C131.609 94.5325 126.451 97.4325 122.274 98.6825C121.242 99.0075 120.16 99.3575 119.883 99.4575C119.355 99.6575 117.568 100.108 116.486 100.283C116.134 100.358 115.001 100.558 113.97 100.783C112.938 100.983 111 101.333 109.692 101.558C108.383 101.758 106.899 102.008 106.421 102.083C104.307 102.458 97.2109 103.108 90.9452 103.483C88.7308 103.608 79.8481 103.783 71.1919 103.858L55.4396 103.983L54.8357 105.158C54.4834 105.808 54.1563 106.383 54.0808 106.458C54.0053 106.533 53.7034 107.083 53.3762 107.708C52.2439 109.883 51.4386 111.333 51.3128 111.458C51.0612 111.708 50.5579 112.708 50.5579 112.958C50.5579 113.108 50.3315 113.458 50.0547 113.758C49.7779 114.058 49.5514 114.508 49.5514 114.758C49.5514 115.008 49.4507 115.208 49.2998 115.208C49.1739 115.208 49.0481 115.433 49.0481 115.683C49.0481 115.958 48.9726 116.208 48.872 116.258C48.7462 116.308 48.3687 116.883 48.0164 117.583C46.9092 119.708 45.022 123.233 43.94 125.208C43.3864 126.233 42.8076 127.333 42.6566 127.633C42.5056 127.958 42.3043 128.208 42.2037 128.208C42.0779 128.208 42.0024 128.433 42.0024 128.708C42.0024 128.983 41.9017 129.208 41.7507 129.208C41.6249 129.208 41.4991 128.858 41.4991 128.458C41.4991 128.033 41.6249 127.708 41.7507 127.708C41.9017 127.708 42.0024 127.258 42.0024 126.708C42.0024 126.158 42.103 125.708 42.2288 125.708C42.3547 125.708 42.5056 125.283 42.5811 124.758C42.6566 124.258 42.8328 123.308 42.9837 122.633C43.1347 121.983 43.3612 120.983 43.487 120.383C45.3239 111.558 46.5066 106.333 47.186 103.908C47.3118 103.508 46.8589 103.458 42.0779 103.383C39.2092 103.308 36.1645 103.133 35.3341 102.983C34.5037 102.858 33.3713 102.658 32.8177 102.558C32.2641 102.483 31.7105 102.308 31.5596 102.208C31.4337 102.108 30.855 101.883 30.3014 101.708C27.6089 100.858 23.3563 98.2575 21.8717 96.5325C20.1102 94.5075 18.3236 91.6825 17.1158 89.0825C16.9396 88.6575 16.688 88.1325 16.5622 87.9075C16.4364 87.6575 16.3357 87.2325 16.3357 86.9575C16.3357 86.6825 16.2351 86.4575 16.0841 86.4575C15.9583 86.4575 15.8324 86.1075 15.8324 85.7075C15.8324 85.2825 15.7318 84.9575 15.5808 84.9575C15.455 84.9575 15.3292 84.6325 15.3292 84.2325C15.3292 83.8075 15.2285 83.4075 15.0775 83.3325C14.9266 83.2575 14.8259 82.8575 14.8259 82.4575C14.8259 82.0575 14.7001 81.6575 14.5743 81.5825C14.4233 81.5075 14.3226 81.0575 14.3226 80.5825C14.3226 80.1075 14.222 79.6575 14.071 79.5825C13.9452 79.5075 13.8194 79.1325 13.8194 78.7825C13.8194 78.4075 13.7187 77.7825 13.5677 77.3575C13.14 76.0575 12.1083 70.7075 11.8063 68.2075C11.6553 66.9075 11.4037 65.0325 11.2779 64.0325C10.9256 61.5075 10.9256 46.9575 11.2779 44.2575C11.454 43.0575 11.7056 41.1325 11.8566 39.9575C12.3599 35.9825 13.2658 31.9075 14.071 30.0825C14.1717 29.8075 14.4233 29.2075 14.6246 28.7575C14.8007 28.3325 15.0272 27.9575 15.1279 27.9575C15.2537 27.9575 15.3292 27.7575 15.3292 27.5075C15.3292 27.2575 15.5556 26.9075 15.8324 26.7075C16.1092 26.5075 16.3357 26.2575 16.3357 26.1325C16.3357 25.8325 18.6004 23.8075 19.3553 23.4075C19.7076 23.2325 20.0347 23.0325 20.1102 22.9325C20.387 22.6325 22.702 21.4575 23.0292 21.4575C23.2305 21.4575 23.3815 21.3325 23.3815 21.2075C23.3815 21.0575 23.6583 20.9575 23.9854 20.9575C24.3377 20.9575 24.69 20.8325 24.7654 20.7075C24.8409 20.5575 25.1932 20.4575 25.5455 20.4575C25.8726 20.4575 26.1494 20.3325 26.1494 20.2075C26.1494 20.0575 26.5017 19.9575 26.9043 19.9575C27.3321 19.9575 27.6592 19.8325 27.6592 19.7075C27.6592 19.5575 27.9864 19.4575 28.389 19.4575C28.8168 19.4575 29.2194 19.3325 29.2949 19.2075C29.3703 19.0575 29.8484 18.9575 30.3266 18.9575C30.8047 18.9575 31.1821 18.8325 31.1821 18.7075C31.1821 18.5575 31.5092 18.4575 31.9118 18.4575C32.3396 18.4575 32.7171 18.3575 32.7926 18.2325C32.8681 18.1075 33.3713 17.9575 33.8746 17.8825C35.4851 17.6575 37.0955 17.3075 37.3471 17.1575C37.5736 17.0075 42.9334 16.0075 46.406 15.4575C48.0919 15.2075 50.7844 14.8825 55.0118 14.4325C61.3027 13.7825 73.8341 13.6825 83.522 14.2325Z" fill="black"/>
<path d="M67.5436 31.6073C66.4365 31.8073 64.977 32.0823 64.2724 32.2323C63.593 32.3573 62.6368 32.5323 62.209 32.6323C61.7561 32.7073 61.3786 32.8573 61.3786 32.9823C61.3786 33.1073 61.1018 33.2073 60.7495 33.2073C60.3972 33.2073 59.894 33.3073 59.6172 33.4573C59.3404 33.5823 58.8874 33.8073 58.6106 33.9573C58.3338 34.0823 57.9312 34.2073 57.7299 34.2073C57.5286 34.2073 57.3525 34.3073 57.3525 34.4573C57.3525 34.5823 57.126 34.7073 56.8492 34.7073C56.5724 34.7073 56.3459 34.8073 56.3459 34.9573C56.3459 35.0823 56.1195 35.2073 55.8427 35.2073C55.5659 35.2073 55.3394 35.3073 55.3394 35.4073C55.3394 35.5323 55.0374 35.7573 54.6852 35.9073C53.8548 36.3073 50.3067 38.8823 49.728 39.5573C49.4512 39.8573 48.8472 40.5823 48.344 41.1823C47.8155 41.7823 47.2116 42.5073 46.9852 42.7823C46.7335 43.0573 46.5322 43.3823 46.5322 43.4823C46.5322 43.5823 46.3812 43.8323 46.2051 44.0073C45.9031 44.2823 44.2927 47.4823 43.7642 48.8323C43.6636 49.1073 43.4371 49.6573 43.2861 50.0323C43.1352 50.4073 43.0093 50.9323 43.0093 51.1823C43.0093 51.5323 42.657 51.7073 41.575 51.9573C39.9394 52.3073 38.4548 53.1823 37.9767 54.0823C37.8005 54.4323 37.5489 54.7073 37.4231 54.7073C37.3224 54.7073 37.2218 54.9323 37.2218 55.1823C37.2218 55.4573 37.1211 55.7323 36.9953 55.8073C36.6178 56.0573 36.4668 59.6823 36.6933 62.4573C37.0456 66.2573 37.5237 68.5823 38.3541 70.2823C38.807 71.2573 40.644 72.7073 41.3989 72.7073C41.6505 72.7073 42.5061 72.8573 43.3365 73.0073C44.7456 73.3073 44.8714 73.3823 45.3495 74.3823C45.6515 74.9823 45.9786 75.4573 46.0793 75.4573C46.1799 75.4573 46.2806 75.6073 46.2806 75.7573C46.2806 75.9323 46.5574 76.4073 46.9097 76.8073C47.2619 77.2073 47.5387 77.6073 47.5387 77.6823C47.5387 77.9573 50.7345 81.2073 50.9861 81.2073C51.1119 81.2073 51.4642 81.4323 51.741 81.7073C53.1502 82.9823 56.8492 84.9573 59.743 85.9323C68.374 88.8324 78.993 88.8824 87.624 86.0823C91.4992 84.8323 95.324 82.7323 97.2616 80.8323C97.7397 80.3573 98.2178 79.9573 98.3436 79.9573C98.5198 79.9573 99.6018 78.7323 101.539 76.3823C101.741 76.1573 101.892 75.8323 101.892 75.7073C101.892 75.5573 101.967 75.4573 102.093 75.4573C102.194 75.4573 102.445 75.0823 102.621 74.6323C103.15 73.4573 103.603 73.1073 104.634 73.0323C106.346 72.9573 107.553 72.6323 108.308 72.1073C109.239 71.4823 109.919 70.6823 109.944 70.2573C109.944 70.1073 110.07 69.9573 110.196 69.9573C110.347 69.9573 110.447 69.5573 110.447 69.0823C110.447 68.6073 110.573 68.2073 110.699 68.2073C110.85 68.2073 110.951 67.7073 110.951 67.0823C110.951 66.4573 111.076 65.9573 111.202 65.9573C111.353 65.9573 111.454 65.2573 111.454 64.3573C111.454 63.4573 111.58 62.6573 111.705 62.5823C111.856 62.5073 111.957 61.2823 111.957 59.8323C111.957 58.3823 111.856 57.1573 111.705 57.0823C111.58 57.0073 111.454 56.6073 111.454 56.1823C111.454 55.7823 111.353 55.4573 111.202 55.4573C111.076 55.4573 110.951 55.2323 110.951 54.9573C110.951 54.6823 110.85 54.4573 110.699 54.4573C110.573 54.4573 110.447 54.3323 110.447 54.1823C110.447 53.8073 109.164 52.7073 108.761 52.7073C108.585 52.7073 108.434 52.5823 108.434 52.4573C108.434 52.3073 108.208 52.2073 107.956 52.2073C107.679 52.2073 107.277 52.0323 107.075 51.8073C106.723 51.4823 106.673 50.4323 106.673 44.2573V37.0573L107.428 36.4073C108.786 35.2323 108.157 33.2073 106.446 33.2073C105.591 33.2073 105.188 33.4823 104.71 34.3823C104.383 34.9823 104.509 35.5073 105.213 36.4573C105.616 37.0073 105.666 37.8323 105.717 44.1573C105.792 51.3573 105.616 52.6323 104.936 49.9573C104.458 48.1073 102.269 43.8823 101.212 42.7823C100.885 42.4573 100.634 42.1073 100.634 42.0073C100.634 41.5823 97.01 38.2323 95.324 37.0323C93.0845 35.4823 90.694 34.2073 90.0397 34.2073C89.7881 34.2073 89.5616 34.0823 89.5616 33.9573C89.5616 33.8073 89.3351 33.7073 89.0584 33.7073C88.7816 33.7073 88.5551 33.5823 88.5551 33.4573C88.5551 33.3073 88.1525 33.2073 87.6744 33.2073C87.1963 33.2073 86.7936 33.1073 86.7936 32.9823C86.7936 32.8573 86.4162 32.7073 85.9884 32.6323C85.5355 32.5573 84.6044 32.3573 83.8999 32.2323C78.7665 31.1573 71.7208 30.8823 67.5436 31.6073ZM81.1319 32.5823C81.9623 32.6823 82.7423 32.8573 82.8682 32.9823C83.0191 33.1073 83.5979 33.2073 84.2018 33.2073C84.8057 33.2073 85.2838 33.3073 85.2838 33.4573C85.2838 33.5823 85.611 33.7073 86.0136 33.7073C86.4414 33.7073 86.844 33.8073 86.9195 33.9573C86.995 34.0823 87.3472 34.2073 87.6744 34.2073C88.0015 34.2073 88.3538 34.3073 88.4293 34.4573C88.5048 34.5823 88.8067 34.7073 89.0835 34.7073C89.3351 34.7073 89.5616 34.8073 89.5616 34.9573C89.5616 35.0823 89.7126 35.2073 89.9139 35.2073C90.3417 35.2073 92.7322 36.5323 94.7453 37.8823C97.7146 39.9073 101.288 43.9323 102.571 46.7073C103.678 49.1573 104.408 51.1823 104.962 53.4573C105.465 55.5823 105.415 64.0823 104.836 66.3823C104.156 69.1823 102.445 73.4823 101.565 74.5823C101.464 74.7073 100.935 75.4073 100.432 76.1073C99.2999 77.6573 97.4881 79.7073 97.2365 79.7073C97.161 79.7073 96.9345 79.8573 96.7332 80.0073C95.9783 80.7323 95.324 81.2073 95.0976 81.2073C94.9466 81.2073 94.8459 81.3073 94.8459 81.4073C94.8459 81.5323 94.544 81.7823 94.1665 81.9823C93.7639 82.1823 93.4116 82.4073 93.3361 82.4823C93.1348 82.7073 88.7816 84.7573 87.926 85.0073C85.4097 85.8073 82.9436 86.3823 80.7544 86.7323C78.0871 87.1573 69.9845 87.1573 67.4178 86.7323C63.9704 86.1823 62.7878 85.9073 60.4979 85.1323C57.8557 84.2823 54.1064 82.4323 53.8799 81.8823C53.8296 81.7823 53.6283 81.7073 53.427 81.7073C53.2257 81.7073 53.0747 81.5823 53.0747 81.4573C53.0747 81.3073 52.8985 81.2073 52.6972 81.2073C52.4959 81.2073 52.3198 81.0823 52.3198 80.9573C52.3198 80.8073 52.194 80.7073 52.043 80.7073C51.8165 80.7073 49.5015 78.4573 48.4698 77.2073C46.2051 74.4823 44.1668 69.9573 43.4623 66.1073C43.0345 63.7823 42.9087 56.6323 43.261 54.5823C44.2927 48.6073 46.4567 44.3823 50.6842 40.1573C52.6721 38.1573 58.208 34.7073 59.3907 34.7073C59.6423 34.7073 59.8688 34.5823 59.8688 34.4573C59.8688 34.3073 60.2211 34.2073 60.6237 34.2073C61.0515 34.2073 61.3786 34.1073 61.3786 33.9823C61.3786 33.7573 62.209 33.5573 64.3479 33.3073C64.9267 33.2073 65.4048 33.0573 65.4048 32.9323C65.4048 32.8073 66.0087 32.7073 66.7384 32.6823C67.443 32.6573 68.3237 32.5573 68.676 32.4573C69.3554 32.2323 78.7162 32.3323 81.1319 32.5823ZM42.3802 53.7573C42.0531 55.6323 41.9525 64.2573 42.2544 64.5573C42.3802 64.6823 42.5061 65.4073 42.5061 66.1073C42.5061 66.8323 42.6319 67.5073 42.7577 67.5823C42.9087 67.6573 43.0093 67.9823 43.0093 68.2823C43.0093 68.5823 43.2358 69.4323 43.5126 70.1573C43.7894 70.8823 44.0159 71.6323 44.0159 71.8573C44.0159 72.2823 43.7894 72.2573 41.6002 71.8323C39.3606 71.3573 38.3541 68.9073 37.4482 61.7323C37.1463 59.2823 37.3727 57.2573 38.1276 55.5823C38.7316 54.2073 40.6691 52.8073 42.1035 52.7323C42.5061 52.7073 42.5312 52.8323 42.3802 53.7573ZM107.503 53.0823C108.61 53.5323 109.944 54.6323 109.944 55.1073C109.944 55.3073 110.07 55.4573 110.196 55.4573C110.347 55.4573 110.447 55.7823 110.447 56.2073C110.447 56.6073 110.573 56.9573 110.699 56.9573C110.85 56.9573 110.951 58.1323 110.951 59.9573C110.951 61.7823 110.85 62.9573 110.699 62.9573C110.548 62.9573 110.447 63.7073 110.447 64.7073C110.447 65.7073 110.347 66.4573 110.196 66.4573C110.07 66.4573 109.944 66.8323 109.944 67.3073C109.944 67.7823 109.843 68.2573 109.692 68.3323C109.567 68.4073 109.441 68.7573 109.441 69.1073C109.441 70.4323 106.723 72.2073 104.66 72.2073C104.056 72.2073 104.031 71.9823 104.534 70.7573C104.911 69.8823 105.087 69.2823 105.691 66.8323C106.32 64.2573 106.597 59.8573 106.295 56.7073C106.144 54.9823 105.943 53.4323 105.842 53.2823C105.691 53.0323 105.968 52.7823 106.446 52.7323C106.547 52.7073 107 52.8823 107.503 53.0823Z" fill="black"/>
<path d="M61.5042 51.0327C55.8424 51.3827 55.163 51.5577 53.3764 53.2827C51.615 54.9577 51.011 56.4077 50.9607 58.9327L50.9355 61.0827L53.3261 61.2827C55.9179 61.4827 60.8499 61.3327 65.2787 60.9327C69.33 60.5827 69.179 60.6327 69.179 59.3827C69.179 57.5577 69.4558 56.4577 69.9088 56.4577C70.3114 56.4577 70.9405 57.9577 70.9405 58.9327C70.9405 59.2077 71.0663 59.5077 71.1921 59.5827C71.3431 59.6577 71.4437 60.1827 71.4437 60.7327C71.4437 62.2577 72.2741 61.8827 72.5257 60.2077C72.7019 59.0327 73.1045 57.4327 73.331 56.8827C73.5826 56.3077 74.2117 56.3327 74.2117 56.9577C74.2117 57.2327 74.3123 57.4577 74.4382 57.4577C74.564 57.4577 74.715 57.8327 74.7905 58.2577C75.2182 60.7077 75.1679 60.6327 76.4009 60.8077C78.1875 61.0327 79.4205 60.9827 79.6973 60.6327C79.8231 60.4827 80.0999 59.6577 80.3264 58.8327C80.5277 58.0077 80.8297 57.0077 80.9806 56.6327C81.2323 56.0077 81.3078 55.9577 81.6349 56.3077C81.8614 56.5077 82.0123 57.1327 82.0123 57.7827C82.0123 59.9827 82.3143 61.9577 82.6666 61.9577C82.8679 61.9577 83.0692 61.7077 83.1195 61.3827C83.195 61.0827 83.3208 60.4827 83.3963 60.0827C83.4718 59.6577 83.6228 59.0327 83.6983 58.6327C83.7738 58.2577 83.9248 57.9577 84.0506 57.9577C84.1764 57.9577 84.2771 57.6577 84.2771 57.3077C84.2771 56.7577 84.9313 55.7577 85.1326 55.9827C85.4597 56.3827 85.7869 57.2827 85.7869 57.8827C85.7869 58.2577 85.9378 59.1327 86.114 59.8327L86.4411 61.0827L87.6993 61.2577C88.3787 61.3327 90.744 61.5327 92.9584 61.6827C95.1728 61.8327 97.4627 62.0327 98.0666 62.1077L99.1235 62.2827V59.7577C99.1235 58.3577 99.0228 57.1577 98.8718 57.0827C98.746 57.0077 98.6202 56.6077 98.6202 56.1827C98.6202 55.7827 98.5195 55.4577 98.3686 55.4577C98.2427 55.4577 98.1169 55.2827 98.1169 55.0827C98.1169 54.8827 98.0163 54.7077 97.8653 54.7077C97.7395 54.7077 97.6137 54.5827 97.6137 54.4077C97.6137 53.7577 95.5251 52.1577 93.7133 51.4327C92.4552 50.9327 68.4493 50.6327 61.5042 51.0327Z" fill="black"/>
<path d="M73.3561 60.8824C72.9535 62.4824 72.6516 63.7324 72.3244 65.2574C72.2489 65.6574 72.0476 65.9574 71.8463 65.9574C71.5444 65.9574 71.2424 64.8824 70.8146 62.1574C70.6385 61.0824 70.3114 60.7824 69.8081 61.2074C69.2042 61.7074 65.3542 62.0074 57.9813 62.1824L50.9355 62.3324L51.011 64.5824C51.0362 65.8074 51.1872 66.8574 51.313 66.9074C51.464 66.9574 51.5646 67.1574 51.5646 67.3574C51.5646 68.3074 54.1313 71.2074 54.9617 71.2074C55.163 71.2074 55.3391 71.3074 55.3391 71.4574C55.3391 71.5824 55.5656 71.7074 55.8172 71.7074C56.094 71.7074 56.3708 71.8074 56.4463 71.9324C56.5973 72.1324 61.1771 72.3324 73.9601 72.6074C81.0813 72.7824 92.4552 72.3824 93.5372 71.9324C95.198 71.2574 95.5754 71.0074 96.6574 69.9324C98.2176 68.3574 99.1235 66.3574 99.1235 64.4574C99.1235 63.3824 99.048 63.2074 98.5699 63.1074C97.8905 62.9574 91.4738 62.4574 88.1774 62.2824C86.9444 62.2074 85.7617 62.0324 85.6107 61.9074C85.4346 61.7574 85.2836 61.0824 85.2836 60.4074C85.2836 59.3574 85.2081 59.1824 84.881 59.3074C84.6545 59.3824 84.428 59.4574 84.3777 59.4574C84.3274 59.4574 84.2771 59.8324 84.2771 60.3074C84.2771 60.7824 84.1764 61.2324 84.0506 61.3074C83.9499 61.3824 83.7738 61.9324 83.6731 62.5074C83.1447 66.1574 82.9182 66.9574 82.3898 66.9574C82.0123 66.9574 81.811 66.0574 81.6097 63.6074C81.4336 61.3074 81.3078 60.7074 80.9806 60.7074C80.8548 60.7074 80.6535 60.9074 80.578 61.1324C80.3012 61.8824 79.9489 61.9824 77.8352 61.8074C75.8976 61.6574 75.797 61.6824 75.646 62.1824C75.495 62.7824 74.715 62.6574 74.715 62.0324C74.715 61.6824 73.9601 59.2074 73.8342 59.2074C73.8091 59.2074 73.5826 59.9574 73.3561 60.8824Z" fill="black"/>
</svg>
