<svg width="150" height="150" viewBox="0 0 150 150" fill="none" xmlns="http://www.w3.org/2000/svg">
<path d="M118.021 3.93342C115.383 4.25101 112.793 5.00834 110.424 6.18097C108.738 6.98716 107.932 7.62234 106.124 9.40573C103.827 11.7021 102.655 13.5344 101.849 16.124L101.433 17.4676L99.6499 17.4188C86.2379 17.15 62.2232 17.0767 55.0897 17.321C35.5457 17.9806 22.0115 19.1777 15.0734 20.9122C11.3356 21.8406 10.2363 22.5491 9.33236 24.6745C7.59783 28.7054 6.86493 37.6468 6.66949 57.0442C6.42519 81.5718 7.54897 105.415 9.30793 112.867C10.3096 117.191 11.3356 117.704 21.7428 119.194C23.6972 119.487 26.6532 119.829 28.3389 119.951C30.0245 120.098 32.663 120.318 34.2021 120.464C35.7411 120.611 41.9708 120.855 48.005 121.002C58.7786 121.295 58.9985 121.295 58.9496 121.784C58.9252 122.052 58.8275 123.958 58.7297 126.01L58.5587 129.748L56.6288 131.531L54.6744 133.315L51.5962 133.486C31.8812 134.536 12.2884 136.393 11.4089 137.272C10.8714 137.81 11.5555 137.883 14.2428 137.59C15.7574 137.443 19.6174 137.028 22.8421 136.71C31.246 135.831 52.891 134.267 53.2086 134.512C53.2574 134.536 52.4757 135.587 51.474 136.857C49.1776 139.813 48.7868 140.741 49.0066 142.842C49.1288 143.868 49.3242 144.601 49.5929 144.87C50.3991 145.676 53.2086 145.945 60.8307 145.969C70.5294 145.969 87.8014 145.212 92.1744 144.601C94.8128 144.21 95.1304 143.917 95.2281 141.596C95.3503 139.52 95.2037 139.153 92.663 135.489L91.3193 133.583L101.067 133.73C106.417 133.828 116.531 133.999 123.567 134.145C130.603 134.292 136.417 134.341 136.49 134.267C136.759 133.999 136.417 133.876 134.585 133.632C131.433 133.217 121.637 132.924 105.831 132.753L90.5131 132.582L89.2916 131.336C88.632 130.652 87.7281 129.821 87.3128 129.479C86.6043 128.893 86.5799 128.771 86.1157 125.008C85.7737 122.101 85.7249 121.1 85.9447 120.953C86.0913 120.855 88.632 120.66 91.5392 120.489C106.051 119.683 120.122 118.021 124.422 116.604C126.083 116.091 127.158 115.041 127.744 113.453C129.772 108.103 130.945 89.9513 130.945 64.251C130.945 53.8438 130.7 42.093 130.407 37.5246C130.334 36.6207 130.383 36.5719 131.311 36.2787C134.072 35.4725 137.614 33.0784 139.373 30.8552C143.502 25.6761 144.332 18.738 141.498 13.339C140.399 11.2135 138.005 8.6484 136.002 7.37804C131.507 4.54417 124.397 3.20052 118.021 3.93342ZM127.402 5.76566C133.705 6.86501 137.932 9.60117 140.326 14.1696C143.99 21.1321 141.132 29.8292 133.876 33.6891C130.945 35.2526 123.469 36.694 120.391 36.3031C119.267 36.1565 119.218 36.181 117.655 37.5735C115.7 39.308 112.696 41.1403 110.57 41.922C109.666 42.2396 108.958 42.435 108.958 42.3618C108.958 42.264 109.178 41.8487 109.422 41.4334C110.179 40.1875 111.889 36.01 111.889 35.3992C111.889 34.935 111.45 34.5197 109.666 33.3471C105.709 30.7575 103.534 27.8259 102.728 24.0637C101.995 20.5947 102.508 16.9302 104.121 13.852C105.171 11.8732 107.687 9.35687 109.764 8.18423C111.718 7.10931 115.09 5.9611 117.288 5.66794C119.878 5.27707 125.008 5.35036 127.402 5.76566ZM90.8307 23.7217C96.1076 23.8438 100.7 24.0637 100.994 24.1859C101.384 24.3324 101.629 24.6745 101.726 25.2608C101.824 25.7249 102.337 27.0197 102.899 28.1435C104.096 30.5377 106.368 32.9074 108.665 34.2021C111.181 35.6191 111.059 35.2771 110.057 37.6223C109.569 38.7705 108.738 40.5051 108.2 41.5067C107.003 43.7298 107.126 43.9253 109.251 43.5344C112.036 43.0214 116.531 40.4318 118.461 38.2087C119.243 37.3292 119.634 37.2315 121.93 37.3292C123.054 37.378 123.078 37.4025 123.225 38.2819C123.567 40.4318 123.86 73.3878 123.616 82.0849C123.371 91.3438 123.127 94.5197 122.516 96.6451C122.199 97.7201 122.052 97.9155 121.441 98.0376C119.438 98.453 97.5245 99.992 97.2558 99.7477C97.1825 99.6989 97.4268 98.6484 97.7933 97.4025C98.6972 94.2754 98.9659 92.2722 98.9659 88.8764C98.9659 86.7754 99.0636 85.7005 99.3568 84.992C99.7721 83.9171 99.5278 82.8178 98.8193 82.8178C98.6239 82.8178 98.404 82.5246 98.3063 82.1337C97.1581 77.0767 96.1809 74.3894 94.7395 72.1907C92.8828 69.4057 90.1711 67.0116 86.2379 64.7152C85.2363 64.1289 83.7949 63.0295 83.062 62.2722C82.1581 61.3438 81.303 60.7575 80.4236 60.4399L79.1532 59.9513L79.8617 58.9986C80.2525 58.4611 80.7656 57.4595 81.0099 56.751C81.4008 55.6517 81.4252 55.3341 81.1565 54.308C80.8389 53.0865 81.0099 52.1093 81.7428 50.9367C82.5245 49.6419 83.3796 46.4416 83.5017 44.3162C83.5994 42.2152 83.575 41.9709 82.8666 40.4074C82.4512 39.479 82.0604 38.3308 81.9871 37.8666C81.7183 36.3031 80.4968 34.08 79.6174 33.5425C77.834 32.5165 75.6353 32.1256 71.4089 32.1256H67.4757L66.5229 32.8829C65.4968 33.7135 64.3486 35.5947 64.1043 36.8894C63.9822 37.4758 63.4936 38.1842 62.4675 39.2103C60.5376 41.1158 59.6337 43.2412 60.8552 42.9236C61.246 42.8259 61.3193 42.8748 61.1727 43.1924C60.8307 43.9986 60.391 45.8064 60.5131 46.0018C60.562 46.0995 60.8307 46.0507 61.0995 45.9285C61.5392 45.6842 61.5636 45.7575 61.5636 47.2722C61.5636 48.909 62.1255 52.7445 62.5897 54.2347C62.7363 54.6989 63.0538 55.3585 63.2737 55.7005C63.5669 56.1403 63.7379 57.0442 63.8356 58.9253L63.9822 61.5148L63.005 61.6859C62.2477 61.808 61.9056 61.7591 61.5636 61.4416C60.9773 60.9285 60.049 61.0995 59.2672 61.9057C58.9496 62.1989 57.7281 62.8096 56.5311 63.2494C50.9854 65.3259 46.9056 69.1614 43.5343 75.5132C41.189 79.935 39.0392 86.3601 38.5506 90.3666C38.233 93.2005 38.4284 98.3797 38.917 99.992L39.3079 101.189L35.106 101.018C23.3063 100.603 15.5131 100.041 14.7558 99.5523C14.2672 99.2347 14.2184 98.9416 14.0718 95.3503C13.4122 79.8373 13.2167 53.795 13.6809 44.3406C14.0229 37.9155 14.9024 29.2429 15.391 27.9969C15.5376 27.5816 15.904 27.3129 16.5392 27.1175C17.9561 26.7021 22.6223 26.2135 30.1711 25.6517C47.9317 24.3813 59.5359 23.8683 79.1532 23.5018C80.3014 23.4774 85.5538 23.5751 90.8307 23.7217ZM75.1223 32.7608C77.3454 33.1517 79.0555 33.6891 79.7395 34.2266C80.277 34.6663 81.0832 36.3764 81.4985 37.9644C81.6451 38.5262 81.5473 38.5995 79.8372 39.137C77.2477 39.9432 71.9464 39.9432 68.7705 39.1126C66.5962 38.5507 64.9105 37.8422 64.6174 37.4025C64.4219 37.0849 65.8389 33.9823 66.4008 33.5425C67.8177 32.4188 71.2623 32.1012 75.1223 32.7608ZM70.0164 41.8243C73.9008 45.3422 75.1955 47.321 75.3666 50.0572C75.5131 52.4758 75.904 52.5735 76.8568 50.4481C77.492 48.9578 78.2004 48.3715 79.3242 48.3715C80.4968 48.3715 80.961 49.2021 80.8144 51.0588C80.7656 51.865 80.6434 52.5979 80.5457 52.6956C80.448 52.7933 80.0327 52.4513 79.6174 51.9627C78.7623 50.9367 78.3226 50.839 77.9073 51.5963C77.663 52.036 77.7118 52.1826 78.176 52.5735C78.4692 52.8178 78.9822 53.0132 79.2998 53.0132C80.5457 53.0132 79.7639 53.7461 78.1516 54.0881C77.5652 54.2103 77.492 54.3569 77.3454 55.7249C77.2721 56.5556 77.1988 57.6549 77.1988 58.1435C77.1988 58.9008 77.0278 59.2184 76.3682 59.8047C74.8047 61.1728 71.7265 61.6859 69.6011 60.953C68.1597 60.4399 67.6711 59.9269 67.6711 58.9497C67.6711 58.3878 67.549 58.0947 67.2558 57.9969C65.0571 57.2885 64.3731 56.7266 63.3714 54.7233C62.8095 53.6484 62.6874 53.0376 62.6874 51.6696C62.6874 49.593 63.3714 46.6859 64.2021 45.2201C64.7395 44.2429 68.1353 40.5539 68.4773 40.5539C68.5506 40.5539 69.2346 41.1403 70.0164 41.8243ZM80.7656 54.8455C81.0587 56.4578 79.2265 59.8536 78.0783 59.8536C77.5408 59.8536 77.5164 59.7803 77.6141 58.5588C77.8828 54.7477 77.8584 54.8699 78.9822 54.4302C80.4724 53.8683 80.5701 53.8927 80.7656 54.8455ZM65.8144 58.0702C66.0832 58.2412 66.5229 58.3878 66.7916 58.3878C67.1825 58.3878 67.2069 58.51 67.0604 59.2673C66.7672 60.9041 66.5229 61.2461 65.6679 61.3927C65.2281 61.466 64.7639 61.4171 64.6662 61.3194C64.5441 61.2217 64.3975 60.2201 64.3242 59.1207L64.1776 57.1175L64.7395 57.435C65.0327 57.6305 65.5213 57.9236 65.8144 58.0702ZM75.6597 63.3471C74.9268 64.1777 73.7297 65.5458 73.0213 66.3764C72.2884 67.207 71.531 67.9399 71.3356 68.0132C71.1402 68.1109 70.334 68.7705 69.5522 69.5034C68.7705 70.2363 68.0376 70.8471 67.9154 70.8471C67.6955 70.8471 66.7916 69.0148 66.5473 68.0621C66.474 67.7201 66.2542 67.3292 66.0832 67.2315C65.7167 67.036 64.9838 64.422 64.9838 63.3715C64.9838 62.3943 65.277 62.0279 66.2297 61.8324C66.8894 61.7103 67.0848 61.5393 67.1337 61.0018C67.1825 60.6354 67.2558 60.3422 67.3291 60.3422C67.378 60.3422 67.8666 60.6354 68.404 60.9774C70.1874 62.1745 73.974 62.0279 75.9773 60.7087L76.8323 60.1712L76.9056 61.0018C76.9789 61.7103 76.8079 62.0523 75.6597 63.3471ZM80.1304 61.7103C80.6923 61.9302 81.0832 62.15 81.0343 62.2233C80.8877 62.3699 78.5913 61.7836 78.3226 61.5393C77.9073 61.1728 79.0799 61.295 80.1304 61.7103ZM64.2021 62.8341C64.2509 63.2005 63.9333 64.6663 63.518 66.1321C62.5408 69.4302 61.4415 74.6337 60.8307 78.7868C60.562 80.5214 60.3421 82.0116 60.3421 82.0604C60.3421 82.1093 60.1955 82.0116 60.0001 81.865C59.8291 81.7184 59.6092 81.1321 59.5359 80.5702C59.4382 79.8129 59.1939 79.3732 58.6565 78.909L57.8991 78.2982V74.5849C57.8991 71.3846 58.2656 67.6468 58.7786 65.9367C58.8763 65.5702 61.8812 62.9562 62.8828 62.3699C63.6402 61.9302 64.1288 62.1012 64.2021 62.8341ZM77.9317 62.1989C77.9317 62.3699 76.8568 66.01 76.3438 67.5735C75.9284 68.795 74.6825 74.5116 74.1451 77.6142C73.974 78.6158 73.6076 78.6403 71.9708 77.7852C69.9675 76.7347 68.6972 74.8536 68.6483 72.8992C68.6483 72.2885 68.9659 71.8487 70.3584 70.5051C71.3112 69.5767 72.0685 68.6728 72.0685 68.4774C72.0685 68.2819 73.29 66.7429 74.7802 65.0816C77.1744 62.3943 77.9317 61.7103 77.9317 62.1989ZM61.417 62.8096C60.7574 63.5425 59.6092 64.3243 59.4382 64.1777C59.1939 63.909 60.391 62.6631 61.0262 62.5165C61.3926 62.4188 61.7346 62.3455 61.7835 62.321C61.8324 62.321 61.6858 62.5165 61.417 62.8096ZM80.0815 62.5409C80.3991 62.5409 81.3519 64.4464 82.9398 68.2575C84.2346 71.409 84.1369 71.7754 80.9366 75.5376C79.6907 76.979 78.8356 77.7608 78.176 78.0295C76.9789 78.4937 74.8535 78.7868 74.6825 78.4937C74.5115 78.2494 76.0017 70.5784 76.5392 68.7461C76.7591 68.0865 77.1499 66.7673 77.4187 65.8145C78.2737 62.8585 78.6157 62.2233 79.2265 62.3943C79.5196 62.4676 79.9105 62.5409 80.0815 62.5409ZM57.8991 64.2999C57.6304 64.8862 57.4105 65.5214 57.4105 65.7168C57.4105 65.9122 56.6776 66.7429 55.7982 67.549L54.1858 69.0148L54.7721 70.8471C56.9219 77.321 57.1418 78.5914 56.1402 79.0311C55.7004 79.2266 55.5539 79.5197 55.505 80.3504C55.4561 80.9611 55.2118 81.7184 54.9431 82.036C54.6988 82.378 54.4789 82.8422 54.4789 83.0865C54.4789 83.3552 54.4056 83.5507 54.3079 83.5507C54.1858 83.5751 53.746 83.8927 53.3063 84.2591L52.4757 84.9676L52.8666 87.3618C53.0864 88.7054 53.3307 90.0735 53.404 90.4399C53.5262 91.0995 53.5017 91.124 52.5001 91.124H51.474L51.6206 88.2412C51.8405 84.4302 52.3291 81.2787 53.233 78.0539C54.0636 75.1712 54.0881 75.0002 53.7949 75.0002C53.5017 75.0002 52.6223 77.9562 52.0359 80.8634C51.3763 84.2347 51.0099 87.6549 51.1076 89.7803L51.1809 91.4904L53.575 91.6614C56.6776 91.8813 60.733 92.4676 64.1776 93.2249C65.6679 93.5425 67.8421 93.8846 68.9903 93.9578L71.0913 94.1289L70.9447 95.3015C70.8226 96.2543 70.8959 96.6207 71.3356 97.3536C71.6288 97.8422 71.8486 98.2819 71.7998 98.3308C71.7509 98.3552 70.3828 99.0148 68.746 99.7722L65.79 101.14H52.9643C42.3128 101.14 40.0653 101.091 39.8454 100.798C39.1613 99.992 38.7949 96.9383 38.917 93.2005C39.0392 90.1468 39.1858 89.0474 39.821 86.6044C41.2379 81.2054 44.1206 74.7315 46.6613 71.3601C49.2509 67.8666 52.9154 65.0328 56.4822 63.7624C58.3633 63.1028 58.4366 63.1272 57.8991 64.2999ZM82.2069 63.4204C82.8666 63.6891 83.7949 65.8634 83.9659 67.5735C84.0392 68.4285 84.0636 69.137 83.9903 69.137C83.917 69.137 83.3796 68.0132 82.8177 66.6207C82.2558 65.2526 81.6939 64.0311 81.5718 63.8846C81.0832 63.3715 81.4008 63.1272 82.2069 63.4204ZM88.5099 66.7673C91.9789 69.0881 94.7151 72.3862 96.0099 75.8552C96.8649 78.0539 97.9887 82.5246 97.7444 82.6712C97.6711 82.7201 94.5196 82.6956 90.7574 82.5979L83.9415 82.4513L83.5506 80.8878C83.3307 80.0083 83.0131 79.251 82.8421 79.2021C82.6223 79.1289 82.5734 79.251 82.6467 79.5442C83.1353 81.181 83.3063 82.1337 83.1841 82.3292C83.1109 82.4758 82.6467 82.5735 82.1581 82.5735C81.1565 82.5735 80.2525 83.4041 79.5196 84.992C79.2753 85.5539 79.0066 85.9937 78.9089 85.9937C78.8112 85.9937 78.1027 85.1875 77.3698 84.1859L76.0017 82.378L77.1744 80.9611C77.8095 80.1549 78.7867 79.2754 79.3731 78.9578C81.8161 77.6875 83.5017 75.6842 84.5766 72.7282C85.2363 70.8715 85.2851 70.5539 85.1874 68.2819C85.1141 66.9383 84.992 65.5214 84.8942 65.1305L84.6988 64.4464L85.8959 65.1305C86.5555 65.4969 87.7281 66.2298 88.5099 66.7673ZM64.9594 65.9367C65.106 66.4008 65.2281 67.1093 65.2281 67.549C65.2281 68.5751 65.7656 70.0653 66.5473 71.2624C66.8649 71.7754 67.2558 72.8504 67.4024 73.6321C67.9643 76.7591 69.8209 78.6403 73.5099 79.7885C73.8519 79.8862 73.803 80.6191 73.2656 84.4057C73.1434 85.3341 72.8747 87.7526 72.7037 89.7315C72.5082 91.7347 72.2639 93.4692 72.1174 93.6158C71.9708 93.7624 70.9203 93.7135 69.1125 93.4692C66.1565 93.0539 60.9284 92.1745 60.391 91.979C60.1223 91.8813 60.0978 91.4416 60.1955 90.0735C60.2688 89.1207 60.4643 86.8243 60.5864 85.0165C60.8552 81.6207 62.2477 72.7282 62.9073 70.3585C63.1027 69.6256 63.4936 68.0376 63.7867 66.865C64.0799 65.6924 64.3975 64.8129 64.4952 64.9106C64.5929 65.0083 64.7884 65.4725 64.9594 65.9367ZM56.9219 68.8927C56.7998 69.7722 56.6776 71.3113 56.6776 72.3129C56.6532 73.8764 56.6043 74.0718 56.3356 73.7298C56.1646 73.4855 55.7737 72.3373 55.4561 71.1647L54.8942 69.0393L55.9692 68.1109C56.5555 67.6223 57.0441 67.2315 57.0929 67.2559C57.1174 67.3047 57.0441 68.0376 56.9219 68.8927ZM58.4122 79.8862C58.6565 80.0328 58.8763 80.3748 58.8763 80.6191C58.8763 81.0344 58.7053 81.1077 57.8014 81.1077C57.2151 81.1077 56.5555 81.181 56.3356 81.2543C56.0425 81.3764 55.9447 81.2543 55.9447 80.7657C55.9447 79.8129 57.3372 79.3243 58.4122 79.8862ZM77.1988 80.0328C77.1988 80.1061 76.8079 80.6191 76.3438 81.181C75.8796 81.7184 75.4887 82.2559 75.4887 82.3536C75.4887 82.4269 76.1239 83.3797 76.9056 84.4302C77.6874 85.5051 78.3959 86.4823 78.4936 86.6289C78.5913 86.7999 78.2249 87.8748 77.6874 89.023C76.8079 90.9041 76.588 91.1973 75.7819 91.5148C75.2933 91.7103 74.4626 92.1012 73.974 92.3699L73.0457 92.8585V91.8813C73.0457 91.3438 73.1434 90.0979 73.29 89.1207C73.4122 88.1435 73.632 86.1158 73.7786 84.65C73.9252 83.1598 74.0962 81.4986 74.1695 80.9122L74.3161 79.8862H75.7574C76.5636 79.8862 77.1988 79.9595 77.1988 80.0328ZM59.3161 82.3292C60.2688 82.9155 60.3177 83.5995 59.4626 84.1614C57.9724 85.1386 55.2118 84.479 55.2118 83.1598C55.2118 81.9627 57.8258 81.4253 59.3161 82.3292ZM55.6027 84.65C56.6532 85.3585 58.0457 85.4562 59.1451 84.8699C59.5604 84.6745 59.9512 84.5523 60.0245 84.6012C60.1955 84.7722 59.6092 91.466 59.4138 91.637C59.2672 91.7836 54.2591 91.1728 54.0392 90.9774C53.917 90.9041 53.2574 86.2868 53.2574 85.5784C53.2574 85.0653 54.0881 84.0393 54.5034 84.0393C54.6255 84.0393 55.1141 84.308 55.6027 84.65ZM98.4529 89.8047C98.4529 92.0279 97.549 97.1826 96.8405 98.9416L96.4496 99.9188H94.7884H93.1271L94.2265 97.2803C94.8128 95.8389 95.5701 94.0067 95.8877 93.2005C97.4512 89.1696 98.1108 87.7038 98.2819 87.7038C98.3796 87.7038 98.4529 88.6565 98.4529 89.8047ZM76.2216 92.1989C76.2216 92.6386 74.1451 97.1826 73.8275 97.4025C73.0946 97.9888 72.1174 97.7933 71.7021 96.9872C71.5066 96.5963 71.3356 96.0344 71.3356 95.7412C71.3356 95.0572 73.29 93.1761 74.6337 92.5653C75.562 92.15 76.2216 91.979 76.2216 92.1989ZM73.2656 99.65C72.6793 101.043 72.1662 101.311 72.4105 100.139C72.4838 99.7233 72.5571 99.1614 72.5571 98.8927C72.5571 98.4285 73.5832 97.8422 73.7297 98.2087C73.7786 98.3308 73.5587 98.966 73.2656 99.65ZM71.9464 99.8455C71.8486 100.358 71.7509 100.823 71.7021 100.872C71.6532 100.92 70.6516 100.994 69.4545 101.043L67.3047 101.14L69.4789 100.041C70.676 99.4302 71.7753 98.9416 71.8975 98.9416C72.0196 98.9416 72.0441 99.3324 71.9464 99.8455ZM128.257 105.269C128.257 108.396 126.938 113.624 125.888 114.626C123.982 116.458 117.801 117.459 99.5522 118.852C88.1923 119.731 83.6483 119.927 69.6255 120.098C50.961 120.342 36.4008 119.78 25.0408 118.363C22.3535 118.046 19.1776 117.655 17.9561 117.508C13.7298 117.02 11.9219 116.385 11.1646 115.065C10.6271 114.186 9.57666 109.788 9.38122 107.687L9.21021 106.051L10.0408 106.271C15.3666 107.712 75.4154 107.883 94.7884 106.515C96.7428 106.393 100.749 106.173 103.705 106.026C111.083 105.684 118.681 105.098 122.761 104.585C124.642 104.341 126.645 104.121 127.231 104.096L128.257 104.072V105.269ZM84.6499 122.687C85.0408 126.743 86.5555 133.925 87.1174 134.365C87.7037 134.854 87.8014 134.023 87.3617 132.288C86.8486 130.261 86.8486 130.261 87.606 130.969C89.0473 132.313 94.0555 138.885 94.0555 139.446C94.0555 139.593 93.8845 139.74 93.689 139.837C92.6385 140.228 72.9968 141.157 60.8307 141.376C51.8894 141.523 49.8372 141.425 49.8372 140.839C49.8372 139.984 56.6043 132.166 57.9968 131.385C58.4366 131.14 58.461 131.214 58.3144 132.924C58.1434 134.951 58.4366 135.904 58.8763 134.756C59.2916 133.657 59.8535 128.087 59.9268 124.544L59.9757 121.295L70.2118 121.246C75.8307 121.222 80.4968 121.148 80.5701 121.075C80.6434 121.002 81.5473 120.929 82.5734 120.929H84.4545L84.6499 122.687Z" fill="black"/>
<path d="M112.353 20.2526C111.572 21.0588 111.474 21.6696 112.011 22.6956C112.402 23.4774 112.817 23.6973 113.844 23.6973C114.87 23.6973 115.554 22.9888 115.725 21.8162C115.847 20.9611 115.774 20.7168 115.236 20.1794C114.357 19.2999 113.282 19.3243 112.353 20.2526Z" fill="black"/>
<path d="M121.149 19.8374C120.391 20.1062 119.732 20.9856 119.707 21.6697C119.683 23.7707 122.272 24.6257 123.469 22.9156C124.618 21.3032 123.005 19.1778 121.149 19.8374Z" fill="black"/>
<path d="M128.038 20.1793C126.621 21.9627 128.428 24.3813 130.407 23.3552C131.775 22.6467 131.971 20.4725 130.725 19.8129C129.821 19.3243 128.575 19.4953 128.038 20.1793Z" fill="black"/>
<path d="M69.5032 35.1792C69.4299 35.3014 69.1367 35.4235 68.868 35.4235C68.3061 35.4235 68.2084 36.5229 68.7703 36.7428C68.9657 36.8161 69.1367 37.1581 69.1367 37.5001C69.1367 37.9887 69.2589 38.1108 69.7475 38.1108C70.1872 38.1108 70.3582 37.9887 70.3582 37.6222C70.3582 37.3047 70.5292 37.1336 70.8468 37.1336C71.6041 37.1336 71.7751 36.3763 71.14 35.961C70.8468 35.7656 70.6025 35.448 70.6025 35.277C70.6025 34.8861 69.723 34.8128 69.5032 35.1792Z" fill="black"/>
<path d="M64.251 45.684C64.0556 45.8062 63.9579 45.9528 64.0312 46.0505C64.2266 46.2459 65.7168 45.9039 65.7168 45.6596C65.7168 45.3664 64.7152 45.3909 64.251 45.684Z" fill="black"/>
<path d="M70.3584 46.3685C70.3584 46.4906 70.7004 46.7349 71.1157 46.8815C72.1662 47.2479 72.4838 47.2235 72.0685 46.8082C71.6043 46.344 70.3584 46.0265 70.3584 46.3685Z" fill="black"/>
<path d="M64.7641 46.7592C64.3976 47.1989 64.4953 48.1761 64.9106 48.3227C65.3992 48.4693 65.8146 47.15 65.3992 46.7347C65.1061 46.4416 65.0084 46.4416 64.7641 46.7592Z" fill="black"/>
<path d="M66.4008 48.4202C65.3259 50.0081 65.1304 50.6433 65.4725 51.3029C65.6679 51.6449 65.9855 51.7915 66.5962 51.7915C67.1093 51.7915 67.4024 51.6938 67.3047 51.5472C67.2314 51.4006 66.8894 51.3029 66.5474 51.3029C65.5702 51.3029 65.5946 50.6677 66.6695 49.0309C67.2314 48.1759 67.6712 47.4185 67.6712 47.3208C67.6712 46.8567 67.1826 47.272 66.4008 48.4202Z" fill="black"/>
<path d="M70.3586 47.7607C70.0655 48.518 70.2854 49.1532 70.8228 49.0555C71.3847 48.9577 71.5313 47.1499 70.9694 47.1499C70.774 47.1499 70.4808 47.4187 70.3586 47.7607Z" fill="black"/>
<path d="M68.8196 53.2817C68.5508 53.4527 67.8668 53.4772 67.1095 53.3794C66.0834 53.2329 65.888 53.2573 66.1323 53.526C66.6697 54.0635 69.87 53.8436 69.87 53.2573C69.87 52.9397 69.3814 52.9641 68.8196 53.2817Z" fill="black"/>
</svg>
