<svg width="150" height="150" viewBox="0 0 150 150" fill="none" xmlns="http://www.w3.org/2000/svg">
<path d="M129.519 59.9654C130.898 58.8239 131.883 57.2782 132.337 55.5465C132.79 53.8148 132.688 51.9846 132.044 50.3141C131.751 47.9038 130.646 45.6653 128.91 43.9669C127.175 42.2685 124.913 41.2115 122.497 40.9699C120.081 40.7283 117.655 41.3165 115.618 42.6376C113.581 43.9587 112.054 45.934 111.289 48.2385C106.861 45.3673 102.053 42.3232 97.4519 39.4174C100.911 34.8166 111.081 36.8575 112.119 40.6281C112.142 40.7749 112.222 40.9066 112.342 40.9942C112.462 41.0818 112.612 41.118 112.759 41.0951C112.906 41.0722 113.038 40.9919 113.125 40.8719C113.213 40.7519 113.249 40.6019 113.226 40.4551C112.707 34.436 100.185 30.9076 95.1341 37.9991C90.6717 35.2663 85.1369 31.9454 80.5015 29.4201C84.4796 25.9608 93.3699 27.898 94.3385 31.4957C94.384 31.6187 94.4718 31.7216 94.5862 31.786C94.7005 31.8504 94.834 31.872 94.9628 31.8471C95.0916 31.8221 95.2074 31.7522 95.2895 31.6499C95.3715 31.5475 95.4146 31.4193 95.4109 31.2881C94.9612 25.6841 83.3727 21.9135 78.1146 28.071C75.9115 26.8365 73.5946 25.8172 71.1961 25.0269C70.7579 24.8451 70.2764 24.794 69.8099 24.88C69.3433 24.9659 68.9117 25.1852 68.567 25.5112C59.8151 36.4078 30.3076 64.7046 16.6782 67.9909C16.3355 68.0425 16.0125 68.1834 15.7417 68.3996C15.4709 68.6157 15.2618 68.8995 15.1356 69.2222C15.0093 69.5449 14.9703 69.8951 15.0225 70.2376C15.0747 70.5802 15.2162 70.9029 15.4328 71.1734C18.4257 74.2112 21.8532 76.7876 25.6031 78.8183C22.1438 82.2776 19.4456 85.3909 17.4392 87.6394C16.4014 88.7464 15.848 109.917 16.7474 114.587C16.8813 115.044 17.1762 115.437 17.5776 115.694C21.9362 118.669 78.08 142.953 83.8224 139.701C87.6622 137.522 133.497 89.8188 134.224 88.3659C135.331 86.0828 134.95 70.862 134.881 64.7737C134.604 62.9403 131.18 60.9686 129.519 59.9654ZM18.8229 105.662V97.9481C33.1789 104.867 66.0418 118.98 78.4951 122.924C81.6776 123.962 81.9544 123.823 83.6148 122.924C93.1278 116.836 126.717 78.9913 132.875 73.2143V80.5133C114.195 99.2279 82.4733 132.022 81.8852 130.154C78.4606 129.946 21.7979 107.046 18.8229 105.662ZM128.654 48.3077C129.898 50.4031 130.566 52.7897 130.592 55.2262C130.58 56.0015 130.389 56.7636 130.035 57.4534C129.681 58.1433 129.173 58.7424 128.551 59.2043C125.645 57.2671 120.145 53.6695 113.641 49.4492C117.204 42.4269 125.126 42.3232 128.516 48.3077H128.654ZM17.9581 70.4469C32.6945 66.0882 60.6799 39.106 70.0891 27.4137C72.3537 28.044 74.5365 28.938 76.5925 30.0774C73.1333 36.5116 76.8347 43.5685 78.1492 42.5653C78.8756 42.0118 77.5611 41.8043 77.3536 38.4142C77.2653 35.9378 77.8257 33.4812 78.9794 31.2881C83.7532 33.7788 89.3572 37.0305 94.0964 39.7633C91.1906 46.2321 94.6845 52.6317 95.8952 51.6977C97.1059 50.7637 95.3417 50.9713 95.1341 47.5812C95.0497 45.3581 95.4757 43.1453 96.3795 41.1124C101.257 43.9836 106.238 46.9585 110.805 49.7605C110.101 51.4842 109.822 53.3517 109.99 55.2059C110.159 57.06 110.77 58.8465 111.773 60.4151C111.819 60.4741 111.875 60.5236 111.94 60.5608C112.004 60.598 112.076 60.6221 112.15 60.6318C112.223 60.6414 112.298 60.6363 112.37 60.617C112.442 60.5976 112.51 60.5643 112.569 60.5188C112.628 60.4734 112.677 60.4168 112.715 60.3523C112.752 60.2877 112.776 60.2164 112.786 60.1426C112.795 60.0687 112.79 59.9936 112.771 59.9216C112.751 59.8497 112.718 59.7823 112.673 59.7233C112.051 58.3489 111.744 56.8531 111.774 55.345C111.804 53.8369 112.17 52.3545 112.846 51.0059C120.906 55.918 127.409 60.0346 129.415 61.3837C129.035 61.7296 92.9548 93.8315 80.6744 103.379C72.6144 101.269 30.3077 80.2712 17.9581 70.4469ZM19.2726 89.715C34.9431 96.6336 70.5388 112.684 78.7373 114.241C80.1556 114.518 80.709 114.622 83.4072 112.477C94.9266 103.241 132.39 64.0473 132.736 64.4624C132.753 64.5655 132.753 64.6706 132.736 64.7737V71.6922C125.022 77.8843 82.1273 122.924 81.4355 120.779C77.9762 120.779 21.7633 97.8442 18.8921 96.5643C18.8229 95.1114 19.1343 91.2371 19.2726 89.715ZM82.2657 137.384C78.8064 139.355 26.122 117.943 19.0651 113.584C18.8001 111.38 18.673 109.162 18.6846 106.942C33.8361 114.414 77.9071 133.025 81.9544 132.852C87.8697 132.541 129.692 85.4601 132.667 82.1738C132.701 83.9408 132.527 85.7057 132.148 87.4319C131.56 88.5734 84.5488 136.104 82.2657 137.384Z" fill="black"/>
</svg>
