<svg width="155" height="154" viewBox="0 0 155 154" fill="none" xmlns="http://www.w3.org/2000/svg">
<path d="M133.867 82.292C132.55 82.0459 131.212 81.9371 129.873 81.9693L134.367 57.5792C134.827 55.0496 135.179 54.8365 132.517 54.6763C106.483 53.1071 91.3227 54.4118 91.2829 53.7909C91.266 53.5264 89.9798 46.4159 89.4562 42.134C89.3213 41.0309 88.5708 37.2787 88.3064 35.9977C87.894 33.9994 87.9377 33.5218 86.9595 33.554C78.7391 33.8246 58.3067 35.8858 47.4891 37.632C28.7316 40.6584 28.8098 40.6898 28.9125 41.5376C28.9125 41.5575 29.6185 50.7738 33.0964 69.8149C24.1224 70.0287 24.6643 71.6646 25.9437 90.6712C26.5569 99.8245 28.8643 118.232 30.9416 127.6C33.8123 140.548 34.8089 143.424 44.6391 144.015C51.0574 144.399 107.079 145.049 121.759 143.186C123.157 143.009 124.084 141.132 124.382 139.95C124.765 138.427 125.532 136.831 128.707 123.375C137.158 87.6126 139.336 83.4779 133.867 82.292ZM130.494 55.8376C133.422 55.8706 133.297 55.8299 133.218 56.1963C133.1 56.7444 122.103 114.279 119.19 127.957C116.824 113.514 112.506 87.1144 112.152 85.6633C110.836 80.2545 109.45 79.9632 105.518 79.5355C104.637 79.4389 70.747 78.8134 70.432 78.7927C69.972 78.7613 70.0602 78.5995 70.0931 78.4393C70.0931 78.4393 70.1629 78.0116 70.1989 77.8261C74.1375 57.7149 73.8431 56.1473 74.5874 56.1189C108.724 54.8273 118.472 55.7004 130.493 55.8376H130.494ZM30.0447 41.9929C29.9489 41.648 30.2187 41.8059 31.5671 41.6495C34.6149 41.2969 42.6154 39.934 47.1978 39.2403C64.5303 36.6179 86.3731 34.4968 86.3754 34.5168C87.1742 34.4401 86.9956 34.424 87.155 35.6137C87.2317 36.1947 87.3781 37.0939 87.4325 37.5876C89.2998 54.6211 90.386 54.0607 89.2937 54.0684C84.2368 54.1005 79.1852 54.3866 74.1574 54.9254C73.0735 55.0503 73.1195 55.6682 72.1107 60.4614C70.1299 69.8731 69.174 74.9216 68.8099 77.3769C68.7195 77.9901 68.5531 78.6225 67.5214 78.5574C64.9918 78.3979 59.4588 78.6379 57.9847 76.6671C53.4697 70.632 58.0445 70.0165 43.0408 69.8379C42.0742 69.8264 38.0061 69.7474 34.5513 69.7865C34.4064 69.1441 34.2447 68.0441 33.9994 66.6437C31.3302 51.2023 30.044 41.5376 30.0447 41.9929ZM127.666 121.358C127.112 124.347 126.025 128.884 125.48 130.991C122.233 143.531 123.478 141.765 116.593 142.199C106.091 142.86 47.4094 143.212 42.4038 142.646C35.5501 141.871 34.7636 138.717 32.5836 127.451C31.5671 122.199 28.6036 103.889 27.0767 84.4406C26.0173 70.957 26.4703 71.7757 30.4495 71.3326C34.2385 70.9133 38.9413 71.3196 44.485 71.3234C44.7571 71.3234 50.727 71.5971 51.5434 71.6684C52.5399 71.755 53.0673 71.8685 53.4598 72.2816C55.0695 73.968 56.3512 78.7735 59.399 79.5094C64.3126 80.6968 94.2119 80.7022 104.779 81.1108C109.715 81.3016 109.867 81.7822 110.835 87.2891C111.962 93.6998 111.908 94.8335 116.492 120.85C119.147 135.908 119.58 139.65 120.591 139.455C121.132 139.351 120.826 137.746 120.711 137.211C120.688 137.106 120.342 135.008 119.804 131.714C125.47 105.174 125.118 107.537 129.656 83.1229C130.868 83.1229 132.079 83.1889 133.284 83.3215C137.563 83.891 135.737 86.5218 130.261 110.651C130.352 110.829 128.104 118.977 127.666 121.358Z" fill="black"/>
<path d="M76.0362 67.6725C75.2834 67.582 75.193 66.9726 75.6138 66.6905C77.1178 65.6756 106.271 66.5242 111.08 67.3038C112.319 67.5038 111.554 68.403 109.184 68.4337C104.842 68.4873 80.348 68.1884 76.0362 67.6725Z" fill="black"/>
<path d="M91.867 61.6168C83.993 61.6168 74.6763 62.3021 76.2018 60.8357C77.5425 59.5471 97.7288 59.3792 98.0707 60.7544C98.1473 61.061 98.142 61.1729 97.8798 61.3025C96.9002 61.7808 91.867 61.6321 91.867 61.6168Z" fill="black"/>
<path d="M75.0404 74.1015C74.5038 73.7826 74.8204 73.1233 75.9066 72.9785C78.3642 72.6519 87.9031 73.0881 87.9223 73.0888C92.284 73.1655 92.5446 73.2483 93.696 73.8792C94.1145 74.1091 94.0892 74.4855 93.7059 74.7553C92.7531 75.4253 75.9534 74.6411 75.0404 74.1015Z" fill="black"/>
<path d="M101.248 61.4802C100.523 61.0341 101.734 60.4676 102.558 60.4554C106.08 60.4055 111.271 60.5267 113.237 60.6409C113.806 60.6738 114.398 61.1966 114.049 61.6558C113.648 62.1824 113.241 62.0912 111.553 62.1993C111.541 62.0122 102.463 62.2299 101.248 61.4802Z" fill="black"/>
<path d="M34.5007 45.4616C34.5007 44.4083 34.2132 44.4451 38.8409 43.5958C45.0139 42.4636 50.2993 41.8396 61.6557 40.4982C66.6184 39.9133 66.1385 39.8405 66.5049 41.3352C67.8487 46.8222 69.5642 59.5163 69.5872 59.7171C69.7681 61.2947 69.7198 61.1843 64.4582 62.0505C64.0221 62.1225 52.0401 63.9577 50.5837 64.1692C39.9754 65.7069 37.7616 66.0089 37.4389 64.8668C35.9886 59.7094 34.5015 45.979 34.5007 45.4616ZM67.3014 52.5039C65.4364 41.2678 65.9476 40.6737 65.1489 40.7994C61.9371 41.3023 53.5012 42.4927 50.7546 42.9366C35.4635 45.4071 39.8106 44.7525 35.4367 45.4056C35.0641 45.4608 35.521 45.3957 36.6631 53.7426C38.2039 64.9833 38.0675 64.6514 38.3741 64.551C38.7137 64.4352 38.9183 64.6008 39.1537 64.1961C39.3836 63.8043 40.4921 62.6377 41.6672 61.231C43.5192 59.101 45.4871 57.0745 47.5619 55.1607C48.8467 53.9143 48.6466 53.9534 52.7975 56.634C53.4567 57.0602 53.574 57.1124 53.4475 57.2749C53.4322 57.294 50.0939 61.8151 49.9498 62.4215C49.5373 64.1531 54.0891 57.4075 60.023 50.3376C61.6396 48.4105 61.2932 48.3308 67.1258 52.7277C67.2439 52.8113 67.3014 52.8542 67.3014 52.5039Z" fill="black"/>
<path d="M52.0815 48.6343C51.2383 48.5362 49.6224 48.6343 49.4684 46.9717C49.3917 46.1446 50.2663 44.6721 52.2939 44.5356C53.8047 44.4337 54.1819 45.1067 54.4739 44.6399C55.3716 43.2041 56.513 43.2141 57.2764 43.93C57.9265 44.5433 57.6375 44.833 58.3297 44.7495C59.2656 44.6368 60.9475 44.3256 61.8351 44.705C62.8209 45.1274 62.3111 46.4175 61.3622 46.8368C58.2316 48.2204 51.3035 48.6343 52.0815 48.6343ZM51.9351 47.8402C54.362 47.5604 63.5461 46.5992 61.484 45.2439C61.0241 44.9373 60.2744 45.2531 59.3737 45.3037C57.8744 45.3872 57.675 45.8104 57.429 45.4194C57.2615 45.0022 56.9776 44.6419 56.6111 44.3815C56.0231 44.0105 55.1278 44.5801 54.9369 45.3842C54.8304 45.8318 54.707 46.0419 54.1129 45.7583C52.717 45.0883 50.9348 45.145 50.307 46.7548C50.1276 47.2147 50.4503 47.3971 50.8106 47.6325C51.1595 47.8029 51.5483 47.8747 51.9351 47.8402Z" fill="black"/>
<path d="M43.2739 45.9024C47.3151 45.6518 48.6451 51.4492 44.9733 53.2828C44.3918 53.5714 43.7454 53.7041 43.0972 53.668C42.449 53.6318 41.8213 53.428 41.2755 53.0766C40.5454 52.6446 39.9781 51.984 39.6615 51.197C39.3449 50.41 39.2966 49.5405 39.5243 48.7233C39.752 47.9062 40.2427 47.1868 40.9206 46.6769C41.5984 46.1669 42.4256 45.8947 43.2739 45.9024ZM46.2174 49.8241C46.0151 48.5141 45.7299 47.4301 44.1554 46.8131C41.9393 45.9446 39.4856 48.8536 40.8746 51.1901C41.185 51.7346 41.6657 52.162 42.2427 52.4066C42.8198 52.6512 43.4612 52.6994 44.0683 52.5439C44.6754 52.3883 45.2146 52.0375 45.603 51.5456C45.9912 51.0536 46.2072 50.4477 46.2174 49.821V49.8241Z" fill="black"/>
<path d="M48.0234 23.2049C48.4798 22.2266 49.2476 21.4271 50.2067 20.9315C51.1658 20.436 52.262 20.2722 53.3241 20.466C53.6729 20.5312 53.4828 20.5733 52.6488 18.1296C52.011 16.2584 51.1019 13.4291 50.9884 13.0933C50.8566 12.7055 51.3272 12.9117 44.4429 15.3501C38.6002 17.4197 39.0049 17.248 39.1268 17.514C41.7814 23.3337 42.6468 25.3926 42.8561 26.301C43.6173 29.6133 37.7907 32.599 35.4252 29.6784C33.7955 27.6662 35.4826 24.9864 37.9962 24.1156C40.6868 23.1827 41.09 26.2443 37.238 17.1246C36.4853 15.3424 35.8092 14.5728 36.6869 14.0676C40.825 11.9602 45.1685 10.2834 49.6493 9.06359C50.6603 8.79299 50.8934 9.38324 51.6055 10.888C52.7653 13.3409 53.4659 15.6406 55.1776 21.0133C55.6897 22.6185 56.0507 24.1002 54.9155 25.5482C52.0041 29.2629 46.212 27.0974 48.0234 23.2049Z" fill="black"/>
<path d="M9.45673 110.249C9.42377 109.981 8.82739 106.213 8.77756 104.217C8.73694 102.575 9.51729 102.097 9.82314 102.738C10.8863 104.961 11.1577 106.979 11.6751 109.626C11.7426 109.971 11.8154 109.779 14.0346 109.35C14.2469 109.309 15.6489 109.174 16.3495 109.059C16.847 108.977 18.2659 109.188 17.7669 109.711C16.6585 110.874 12.667 112.072 12.3581 112.11C12.0247 112.152 12.1626 112.28 12.3811 113.534C12.5045 114.242 13.6237 120.369 12.9231 120.484C12.746 120.513 12.5398 120.587 12.3865 120.399C11.3332 119.101 10.4946 116.183 10.257 114.726C9.74112 111.573 10.6403 112.991 5.44613 113.168C5.31859 113.163 5.19439 113.126 5.08509 113.06C4.46571 112.727 5.16864 111.963 5.79338 111.712C6.91409 111.193 8.08208 110.785 9.28119 110.49C9.45673 110.454 9.47972 110.374 9.45673 110.249Z" fill="black"/>
<path d="M74.3306 15.6835C74.3306 14.4064 77.8146 15.3056 77.8008 14.6364C77.741 13.7747 77.8 12.9089 77.9748 12.0631C78.0821 11.538 77.9648 10.8105 78.5942 10.7898C78.874 10.7806 79.0319 10.8903 79.1591 11.2122C79.2396 11.4026 79.2979 11.6021 79.3308 11.8063C79.813 15.4198 78.7421 14.8257 81.3852 14.943C82.0873 14.9673 82.7726 15.1668 83.3782 15.5233C83.7914 15.8261 83.0432 16.2247 82.696 16.2898C79.6237 16.8808 79.6359 16.2592 79.6405 17.1599C79.731 18.3416 79.6229 19.5302 79.3201 20.676C79.2028 21.1122 78.7184 21.3046 78.4171 20.8792C78.0798 20.4024 78.2209 20.1594 77.9871 18.7919C77.7333 17.3086 78.1143 16.6946 77.6958 16.6754C75.7871 16.5896 74.3329 16.5635 74.3306 15.6835Z" fill="black"/>
<path d="M11.6652 46.2971C11.9618 46.3325 12.2481 46.4285 12.5061 46.5791C12.7641 46.7297 12.9885 46.9317 13.1653 47.1725C13.6436 47.7075 13.9214 48.3921 13.951 49.1092C13.9807 49.8263 13.7604 50.5314 13.3278 51.1041C9.74036 55.406 4.73171 48.7715 8.88183 46.6458C9.74972 46.2394 10.7238 46.1173 11.6652 46.2971ZM10.5575 50.9194C11.045 50.9195 11.5168 50.7479 11.8904 50.4347C12.264 50.1216 12.5154 49.6869 12.6004 49.2069C12.6287 48.2364 12.4425 47.3787 11.3739 47.2468C9.44601 47.0084 8.53763 48.2212 8.96845 49.6079C9.16775 50.2364 9.88294 50.9868 10.5583 50.9194H10.5575Z" fill="black"/>
<path d="M149.816 39.0671C150.771 40.6968 150.612 42.1494 149.922 43.0754C147.505 46.3187 143.571 43.0601 144.452 40.3036C145.24 37.836 149.098 37.8422 149.816 39.0671ZM146.763 42.8508C147.773 43.5706 148.888 42.6615 149.143 41.7608C149.413 40.8095 148.966 39.4328 148.192 39.4174C145.318 39.3584 145.132 41.6864 146.763 42.8508Z" fill="black"/>
<path d="M98.9951 15.0688C99.7939 10.7324 99.1569 11.2667 102.782 11.5633C108.263 12.0125 114.184 12.5545 118.983 13.1217C119.605 13.1984 132.988 15.0082 134.031 15.2305C135.176 15.4743 134.951 15.3018 132.641 34.7476C131.005 48.5057 130.837 48.3922 130.332 48.3922C128.41 48.403 127.195 48.009 116.001 46.6606C103.123 45.1091 103.438 45.6365 96.2133 44.2843C95.6346 44.1762 95.7334 43.2157 95.7158 42.1142C95.6338 37.0918 98.0967 19.941 98.9951 15.0688ZM130.117 41.6228C130.723 41.76 130.143 42.2499 131.996 28.6888C132.912 21.9869 133.013 22.0199 132.82 21.9739C132.099 21.8022 102.072 18.4631 99.8881 18.1319C99.57 18.0836 99.6988 17.127 97.531 36.2064C97.3501 37.8001 97.2297 37.7495 97.761 37.7763C108.394 38.3182 130.191 41.6228 130.113 41.6228H130.117ZM117.602 13.8799C117.159 13.8208 116.945 15.2321 116.792 17.0227C116.65 18.6892 116.825 19.675 116.983 19.6635C117.372 19.6596 118.235 13.9657 117.602 13.8799ZM113.73 44.8408C113.953 46.3877 114.207 45.6196 114.516 44.0789C114.755 42.8846 114.765 41.4588 114.857 40.7513C114.86 40.531 114.844 40.3109 114.807 40.0936C114.801 39.9042 114.36 39.7387 114.248 40.3343C113.98 41.8241 113.807 43.3293 113.728 44.8408H113.73ZM130.152 15.7203C130.166 15.3371 129.774 15.4544 129.705 15.567C129.268 16.283 128.704 20.8999 129.265 20.8815C129.514 20.8739 129.774 19.4887 129.955 18.2599C130.116 17.4236 130.182 16.5715 130.15 15.7203H130.152ZM126.767 41.5577C126.537 41.8643 126.505 41.7524 126.188 43.934C126.004 44.8108 125.975 45.7131 126.101 46.6C126.106 46.689 126.231 47.0937 126.373 46.8737C126.809 46.1999 127.666 40.3435 126.765 41.5577H126.767ZM110.397 18.8302C110.412 18.8472 110.431 18.8604 110.451 18.8691C110.472 18.8778 110.495 18.8816 110.517 18.8803C110.539 18.879 110.562 18.8726 110.582 18.8614C110.601 18.8504 110.618 18.835 110.631 18.8164C110.77 18.6332 110.868 18.4219 110.918 18.1971C110.961 17.4757 111.653 13.3417 111.159 13.2145C110.598 13.0696 110.187 16.3006 110.174 17.4934C110.102 17.9514 110.18 18.4204 110.397 18.8302ZM107.177 43.5829C107.441 45.0125 107.381 44.8017 107.526 44.9888C107.986 44.4376 107.926 42.9191 108.188 41.2603C108.367 40.6843 108.395 40.0718 108.269 39.4819C108.24 39.4006 108.306 39.2795 108.172 39.2442C107.643 39.1063 107.687 39.5401 107.177 43.5829ZM119.417 45.1359C119.523 46.0152 119.533 46.3371 119.661 46.3371C120.308 46.3371 120.304 43.1414 120.427 42.555C120.531 42.0066 120.523 41.4428 120.403 40.8977C120.357 40.6562 119.93 40.7973 119.842 41.2909C119.817 41.4289 119.417 45.0539 119.417 45.1359ZM122.406 19.0671C122.359 19.9586 122.506 20.5412 122.79 20.2614C123.137 19.9141 123.357 18.309 123.391 17.8291C123.468 16.7851 123.754 14.395 123.116 14.8043C122.748 15.0396 122.456 18.1764 122.409 19.0671H122.406ZM100.922 42.5795C100.892 43.0249 100.905 43.4721 100.962 43.9148C101.03 44.1341 101.332 44.075 101.422 43.6312C101.785 42.1157 101.946 40.5589 101.9 39.0012C101.9 38.5022 101.401 38.552 101.32 39.0457C101.058 40.2053 100.924 41.3905 100.922 42.5795ZM104.934 13.7074C104.88 13.7013 104.873 13.7074 104.89 12.9339C104.898 12.5576 104.536 12.5307 104.396 12.7875C104.263 13.2882 104.165 13.7973 104.101 14.3114C103.391 19.1683 104.548 18.7865 104.714 15.8315C104.74 15.2888 104.934 13.6307 104.934 13.7074Z" fill="black"/>
<path d="M111.067 25.8035C111.543 22.0627 111.348 22.2176 112.344 21.8627C112.792 21.7025 113.149 22.1425 119.25 26.9986C120.529 27.9379 121.694 29.0235 122.721 30.2334C123.231 30.9624 122.957 31.0996 119.919 32.5269C118.285 33.2935 113.858 35.1485 111.634 35.8721C109.63 36.5245 109.903 34.9408 111.067 25.8035ZM112.7 23.116C112.187 22.5664 112.615 23.9454 111.896 29.2599C111.11 35.0665 111.111 35.0489 111.113 35.068C111.501 35.0427 111.04 34.8818 120.789 30.9861C121.123 30.8733 121.442 30.7188 121.738 30.5262C121.742 30.6021 114.521 25.0684 112.7 23.116Z" fill="black"/>
</svg>
