<svg width="150" height="150" viewBox="0 0 150 150" fill="none" xmlns="http://www.w3.org/2000/svg">
<path d="M133.022 82.2922C131.705 82.0462 130.367 81.9373 129.027 81.9695L133.522 57.5794C133.982 55.0498 134.334 54.8367 131.672 54.6765C105.638 53.1074 90.4777 54.4121 90.4378 53.7912C90.4209 53.5267 89.1347 46.4162 88.6111 42.1342C88.4762 41.0312 87.7257 37.2789 87.4613 35.998C87.0489 33.9996 87.0926 33.522 86.1145 33.5542C77.894 33.8248 57.4616 35.8861 46.644 37.6323C27.8865 40.6586 27.9647 40.69 28.0675 41.5378C28.0675 41.5578 28.7734 50.774 32.2513 69.8151C23.2773 70.029 23.8192 71.6648 25.0986 90.6714C25.7118 99.8248 28.0192 118.233 30.0965 127.6C32.9672 140.548 33.9638 143.425 43.794 144.016C50.2123 144.399 106.234 145.05 120.914 143.186C122.312 143.009 123.238 141.132 123.537 139.95C123.92 138.427 124.686 136.831 127.862 123.376C136.313 87.6129 138.491 83.4781 133.022 82.2922ZM129.649 55.8378C132.577 55.8708 132.452 55.8302 132.373 56.1966C132.255 56.7447 121.258 114.279 118.345 127.957C115.979 113.515 111.66 87.1146 111.307 85.6635C109.991 80.2548 108.605 79.9635 104.673 79.5357C103.792 79.4391 69.9019 78.8136 69.5869 78.7929C69.1269 78.7615 69.2151 78.5998 69.2481 78.4396C69.2481 78.4396 69.3178 78.0118 69.3538 77.8263C73.2924 57.7151 72.998 56.1475 73.7423 56.1192C107.879 54.8275 117.627 55.7006 129.648 55.8378H129.649ZM29.1996 41.9932C29.1038 41.6482 29.3737 41.8061 30.722 41.6498C33.7698 41.2971 41.7703 39.9342 46.3527 39.2405C63.6852 36.6181 85.528 34.4971 85.5303 34.517C86.3291 34.4404 86.1505 34.4243 86.3099 35.6139C86.3866 36.195 86.533 37.0942 86.5874 37.5878C88.4547 54.6213 89.5409 54.061 88.4486 54.0686C83.3917 54.1008 78.3401 54.3868 73.3123 54.9256C72.2284 55.0506 72.2744 55.6684 71.2656 60.4617C69.2848 69.8734 68.329 74.9219 67.9648 77.3771C67.8744 77.9904 67.708 78.6228 66.6763 78.5576C64.1467 78.3982 58.6137 78.6381 57.1396 76.6673C52.6246 70.6323 57.1994 70.0167 42.1957 69.8381C41.2291 69.8266 37.161 69.7477 33.7062 69.7868C33.5613 69.1444 33.3996 68.0444 33.1543 66.6439C30.4852 51.2025 29.1989 41.5378 29.1996 41.9932ZM126.821 121.358C126.267 124.347 125.18 128.885 124.635 130.991C121.388 143.531 122.633 141.765 115.748 142.199C105.246 142.86 46.5643 143.212 41.5587 142.647C34.705 141.872 33.9185 138.717 31.7385 127.451C30.722 122.199 27.7585 103.889 26.2316 84.4409C25.1722 70.9573 25.6252 71.7759 29.6044 71.3329C33.3934 70.9136 38.0962 71.3198 43.6399 71.3237C43.912 71.3237 49.8819 71.5973 50.6983 71.6686C51.6948 71.7553 52.2222 71.8687 52.6147 72.2819C54.2244 73.9683 55.5061 78.7738 58.5539 79.5097C63.4675 80.6971 93.3668 80.7024 103.934 81.111C108.87 81.3019 109.022 81.7825 109.989 87.2894C111.117 93.7 111.063 94.8338 115.647 120.85C118.302 135.908 118.735 139.65 119.746 139.455C120.286 139.351 119.981 137.746 119.866 137.212C119.843 137.106 119.497 135.009 118.959 131.714C124.625 105.175 124.273 107.537 128.811 83.1232C130.022 83.1232 131.234 83.1891 132.439 83.3217C136.717 83.8913 134.892 86.5221 129.416 110.652C129.507 110.829 127.259 118.977 126.821 121.358Z" fill="black"/>
<path d="M75.191 67.6725C74.4383 67.582 74.3478 66.9726 74.7687 66.6905C76.2726 65.6756 105.426 66.5242 110.235 67.3038C111.473 67.5038 110.709 68.403 108.339 68.4337C103.996 68.4873 79.5029 68.1884 75.191 67.6725Z" fill="black"/>
<path d="M91.0221 61.6168C83.1481 61.6168 73.8315 62.3021 75.3569 60.8357C76.6976 59.5471 96.884 59.3792 97.2258 60.7544C97.3025 61.061 97.2971 61.1729 97.035 61.3025C96.0553 61.7808 91.0221 61.6321 91.0221 61.6168Z" fill="black"/>
<path d="M74.1952 74.1017C73.6586 73.7828 73.9752 73.1236 75.0614 72.9787C77.519 72.6522 87.0579 73.0883 87.0771 73.0891C91.4388 73.1657 91.6994 73.2485 92.8507 73.8794C93.2693 74.1094 93.244 74.4857 92.8607 74.7556C91.9079 75.4255 75.1082 74.6414 74.1952 74.1017Z" fill="black"/>
<path d="M100.403 61.4802C99.6778 61.0341 100.889 60.4676 101.713 60.4554C105.235 60.4055 110.426 60.5267 112.392 60.6409C112.961 60.6738 113.553 61.1966 113.204 61.6558C112.803 62.1824 112.396 62.0912 110.708 62.1993C110.696 62.0122 101.618 62.2299 100.403 61.4802Z" fill="black"/>
<path d="M33.6559 45.4618C33.6559 44.4086 33.3684 44.4454 37.9961 43.596C44.1691 42.4638 49.4544 41.8399 60.8109 40.4984C65.7735 39.9135 65.2937 39.8407 65.6601 41.3355C67.0038 46.8224 68.7194 59.5165 68.7424 59.7173C68.9233 61.2949 68.875 61.1845 63.6134 62.0507C63.1772 62.1228 51.1953 63.9579 49.7388 64.1695C39.1306 65.7072 36.9168 66.0092 36.594 64.867C35.1437 59.7097 33.6566 45.9792 33.6559 45.4618ZM66.4565 52.5041C64.5915 41.268 65.1028 40.6739 64.3041 40.7997C61.0922 41.3025 52.6563 42.493 49.9098 42.9368C34.6186 45.4074 38.9657 44.7528 34.5918 45.4059C34.2193 45.4611 34.6761 45.3959 35.8183 53.7429C37.3591 64.9835 37.2226 64.6516 37.5292 64.5512C37.8688 64.4355 38.0735 64.601 38.3088 64.1963C38.5388 63.8046 39.6472 62.6379 40.8223 61.2313C42.6744 59.1013 44.6423 57.0747 46.7171 55.161C48.0018 53.9146 47.8018 53.9537 51.9526 56.6343C52.6119 57.0605 52.7291 57.1126 52.6027 57.2751C52.5873 57.2943 49.249 61.8154 49.1049 62.4217C48.6925 64.1534 53.2443 57.4077 59.1781 50.3378C60.7948 48.4107 60.4483 48.331 66.281 52.7279C66.399 52.8115 66.4565 52.8544 66.4565 52.5041Z" fill="black"/>
<path d="M51.236 48.6346C50.3927 48.5365 48.7769 48.6346 48.6228 46.9719C48.5461 46.1448 49.4208 44.6723 51.4483 44.5358C52.9592 44.4339 53.3363 45.1069 53.6284 44.6401C54.526 43.2044 55.6674 43.2143 56.4309 43.9303C57.0809 44.5435 56.7919 44.8333 57.4841 44.7497C58.4201 44.637 60.1019 44.3258 60.9895 44.7053C61.9753 45.1276 61.4656 46.4177 60.5166 46.837C57.386 48.2207 50.4579 48.6346 51.236 48.6346ZM51.0895 47.8404C53.5164 47.5607 62.7005 46.5994 60.6385 45.2441C60.1785 44.9375 59.4288 45.2533 58.5281 45.3039C57.0288 45.3875 56.8295 45.8106 56.5834 45.4197C56.4159 45.0024 56.132 44.6422 55.7655 44.3818C55.1776 44.0108 54.2822 44.5803 54.0914 45.3844C53.9848 45.8321 53.8614 46.0421 53.2673 45.7585C51.8714 45.0885 50.0892 45.1453 49.4614 46.755C49.282 47.2149 49.6047 47.3974 49.965 47.6327C50.3139 47.8031 50.7027 47.8749 51.0895 47.8404Z" fill="black"/>
<path d="M42.4291 45.9024C46.4703 45.6518 47.8003 51.4492 44.1285 53.2828C43.547 53.5714 42.9006 53.7041 42.2524 53.668C41.6042 53.6318 40.9765 53.428 40.4307 53.0766C39.7006 52.6446 39.1333 51.984 38.8167 51.197C38.5001 50.41 38.4519 49.5405 38.6795 48.7233C38.9072 47.9062 39.3979 47.1868 40.0758 46.6769C40.7536 46.1669 41.5808 45.8947 42.4291 45.9024ZM45.3726 49.8241C45.1703 48.5141 44.8851 47.4301 43.3106 46.8131C41.0945 45.9446 38.6408 48.8536 40.0298 51.1901C40.3402 51.7346 40.8209 52.162 41.3979 52.4066C41.975 52.6512 42.6164 52.6994 43.2235 52.5439C43.8307 52.3883 44.3699 52.0375 44.7582 51.5456C45.1464 51.0536 45.3624 50.4477 45.3726 49.821V49.8241Z" fill="black"/>
<path d="M47.1786 23.2049C47.635 22.2266 48.4027 21.4271 49.3618 20.9315C50.321 20.436 51.4172 20.2722 52.4793 20.466C52.828 20.5312 52.6379 20.5733 51.8039 18.1296C51.1661 16.2584 50.257 13.4291 50.1436 13.0933C50.0117 12.7055 50.4824 12.9117 43.598 15.3501C37.7554 17.4197 38.1601 17.248 38.282 17.514C40.9365 23.3337 41.802 25.3926 42.0112 26.301C42.7724 29.6133 36.9459 32.599 34.5803 29.6784C32.9506 27.6662 34.6378 24.9864 37.1513 24.1156C39.8419 23.1827 40.2451 26.2443 36.3932 17.1246C35.6404 15.3424 34.9643 14.5728 35.842 14.0676C39.9801 11.9602 44.3237 10.2834 48.8044 9.06359C49.8155 8.79299 50.0485 9.38324 50.7606 10.888C51.9204 13.3409 52.6211 15.6406 54.3328 21.0133C54.8448 22.6185 55.2059 24.1002 54.0706 25.5482C51.1593 29.2629 45.3672 27.0974 47.1786 23.2049Z" fill="black"/>
<path d="M8.61176 110.249C8.5788 109.981 7.98242 106.213 7.93259 104.217C7.89197 102.575 8.67231 102.097 8.97817 102.738C10.0414 104.961 10.3127 106.979 10.8302 109.626C10.8976 109.971 10.9704 109.779 13.1896 109.35C13.4019 109.309 14.8039 109.174 15.5046 109.059C16.0021 108.977 17.421 109.188 16.9219 109.711C15.8135 110.874 11.8221 112.072 11.5131 112.11C11.1797 112.152 11.3177 112.28 11.5361 113.534C11.6596 114.242 12.7787 120.369 12.0781 120.484C11.901 120.513 11.6948 120.587 11.5415 120.399C10.4883 119.101 9.64967 116.183 9.41204 114.726C8.89615 111.573 9.79531 112.991 4.60116 113.168C4.47362 113.163 4.34942 113.126 4.24011 113.06C3.62074 112.727 4.32367 111.963 4.94841 111.712C6.06912 111.193 7.23711 110.785 8.43622 110.49C8.61176 110.454 8.63475 110.374 8.61176 110.249Z" fill="black"/>
<path d="M73.4854 15.6837C73.4854 14.4067 76.9693 15.3058 76.9555 14.6366C76.8957 13.7749 76.9548 12.9091 77.1295 12.0633C77.2368 11.5382 77.1196 10.8108 77.7489 10.7901C78.0287 10.7809 78.1866 10.8905 78.3138 11.2124C78.3943 11.4029 78.4526 11.6023 78.4856 11.8065C78.9677 15.42 77.8968 14.826 80.5399 14.9432C81.2421 14.9675 81.9274 15.167 82.5329 15.5235C82.9461 15.8263 82.198 16.2249 81.8507 16.2901C78.7784 16.8811 78.7906 16.2594 78.7952 17.1601C78.8857 18.3418 78.7776 19.5304 78.4748 20.6763C78.3575 21.1124 77.8731 21.3048 77.5718 20.8794C77.2345 20.4026 77.3756 20.1596 77.1418 18.7921C76.8881 17.3088 77.269 16.6948 76.8505 16.6757C74.9418 16.5898 73.4877 16.5637 73.4854 15.6837Z" fill="black"/>
<path d="M10.82 46.2971C11.1166 46.3325 11.4028 46.4285 11.6609 46.5791C11.9189 46.7297 12.1433 46.9317 12.3201 47.1725C12.7984 47.7075 13.0761 48.3921 13.1058 49.1092C13.1355 49.8263 12.9152 50.5314 12.4826 51.1041C8.89515 55.406 3.8865 48.7715 8.03661 46.6458C8.9045 46.2394 9.87856 46.1173 10.82 46.2971ZM9.71229 50.9194C10.1997 50.9195 10.6716 50.7479 11.0452 50.4347C11.4188 50.1216 11.6701 49.6869 11.7551 49.2069C11.7835 48.2364 11.5972 47.3787 10.5287 47.2468C8.60079 47.0084 7.69242 48.2212 8.12323 49.6079C8.32254 50.2364 9.03773 50.9868 9.71306 50.9194H9.71229Z" fill="black"/>
<path d="M148.971 39.0674C149.926 40.697 149.767 42.1497 149.077 43.0757C146.661 46.3189 142.726 43.0603 143.607 40.3038C144.395 37.8363 148.253 37.8424 148.971 39.0674ZM145.918 42.8511C146.928 43.5708 148.043 42.6617 148.298 41.761C148.568 40.8097 148.121 39.433 147.347 39.4177C144.473 39.3587 144.287 41.6867 145.918 42.8511Z" fill="black"/>
<path d="M98.1504 15.0685C98.9492 10.7322 98.3122 11.2664 101.937 11.5631C107.419 12.0123 113.339 12.5542 118.138 13.1215C118.76 13.1982 132.143 15.008 133.186 15.2303C134.331 15.474 134.106 15.3016 131.796 34.7474C130.16 48.5054 129.992 48.392 129.487 48.392C127.565 48.4027 126.35 48.0087 115.156 46.6604C102.278 45.1089 102.593 45.6362 95.3686 44.284C94.7899 44.176 94.8888 43.2155 94.8711 42.114C94.7891 37.0915 97.252 19.9407 98.1504 15.0685ZM129.272 41.6226C129.878 41.7598 129.298 42.2496 131.151 28.6886C132.067 21.9866 132.168 22.0196 131.975 21.9736C131.254 21.8019 101.227 18.4628 99.0435 18.1317C98.7254 18.0834 98.8541 17.1267 96.6863 36.2062C96.5054 37.7998 96.3851 37.7492 96.9163 37.776C107.549 38.318 129.347 41.6226 129.269 41.6226H129.272ZM116.758 13.8796C116.314 13.8206 116.1 15.2318 115.947 17.0225C115.805 18.6889 115.98 19.6747 116.138 19.6632C116.528 19.6594 117.39 13.9655 116.758 13.8796ZM112.886 44.8406C113.108 46.3875 113.363 45.6194 113.672 44.0786C113.911 42.8843 113.92 41.4585 114.013 40.751C114.016 40.5308 113.999 40.3106 113.963 40.0933C113.956 39.904 113.515 39.7384 113.403 40.334C113.136 41.8239 112.962 43.329 112.884 44.8406H112.886ZM129.308 15.7201C129.321 15.3368 128.93 15.4541 128.86 15.5668C128.423 16.2827 127.859 20.8997 128.42 20.8813C128.669 20.8736 128.929 19.4885 129.11 18.2597C129.272 17.4234 129.338 16.5713 129.305 15.7201H129.308ZM125.923 41.5574C125.693 41.8641 125.66 41.7521 125.344 43.9337C125.16 44.8106 125.13 45.7128 125.256 46.5998C125.261 46.6887 125.386 47.0935 125.529 46.8735C125.964 46.1997 126.822 40.3432 125.92 41.5574H125.923ZM109.552 18.83C109.567 18.8469 109.586 18.8602 109.607 18.8689C109.627 18.8776 109.65 18.8814 109.672 18.8801C109.695 18.8787 109.717 18.8723 109.737 18.8612C109.756 18.8502 109.773 18.8347 109.786 18.8162C109.925 18.6329 110.024 18.4217 110.073 18.1968C110.116 17.4755 110.808 13.3415 110.314 13.2142C109.753 13.0694 109.342 16.3004 109.329 17.4931C109.257 17.9511 109.335 18.4202 109.552 18.83ZM106.333 43.5827C106.596 45.0123 106.537 44.8015 106.681 44.9885C107.141 44.4374 107.082 42.9188 107.343 41.26C107.522 40.684 107.55 40.0716 107.424 39.4816C107.395 39.4004 107.461 39.2792 107.328 39.244C106.798 39.106 106.842 39.5399 106.333 43.5827ZM118.572 45.1357C118.679 46.0149 118.688 46.3369 118.816 46.3369C119.464 46.3369 119.46 43.1411 119.582 42.5547C119.687 42.0063 119.678 41.4426 119.559 40.8974C119.513 40.656 119.085 40.797 118.998 41.2907C118.972 41.4287 118.572 45.0537 118.572 45.1357ZM121.562 19.0669C121.514 19.9584 121.661 20.5409 121.945 20.2611C122.292 19.9139 122.512 18.3087 122.547 17.8289C122.623 16.7848 122.909 14.3947 122.271 14.8041C121.904 15.0394 121.611 18.1761 121.565 19.0669H121.562ZM100.078 42.5792C100.047 43.0246 100.06 43.4719 100.117 43.9146C100.186 44.1338 100.487 44.0748 100.577 43.631C100.94 42.1155 101.101 40.5586 101.056 39.001C101.056 38.502 100.556 38.5518 100.475 39.0455C100.213 40.2051 100.079 41.3902 100.078 42.5792ZM104.09 13.7071C104.035 13.701 104.028 13.7071 104.045 12.9337C104.054 12.5573 103.692 12.5305 103.552 12.7873C103.418 13.2879 103.32 13.7971 103.256 14.3112C102.547 19.168 103.703 18.7863 103.87 15.8313C103.896 15.2885 104.089 13.6305 104.09 13.7071Z" fill="black"/>
<path d="M110.222 25.8035C110.698 22.0627 110.503 22.2176 111.499 21.8627C111.947 21.7025 112.305 22.1425 118.405 26.9986C119.684 27.9379 120.85 29.0235 121.877 30.2334C122.387 30.9624 122.112 31.0996 119.074 32.5269C117.44 33.2935 113.013 35.1485 110.789 35.8721C108.786 36.5245 109.059 34.9408 110.222 25.8035ZM111.856 23.116C111.343 22.5664 111.771 23.9454 111.052 29.2599C110.266 35.0665 110.267 35.0489 110.268 35.068C110.656 35.0427 110.195 34.8818 119.944 30.9861C120.279 30.8733 120.597 30.7188 120.893 30.5262C120.897 30.6021 113.676 25.0684 111.856 23.116Z" fill="black"/>
</svg>
